<?xml version="1.0" encoding="UTF-8" standalone="no"?>
<!--
   ~  Copyright (c) 2017 Nicola Fiori (JD342)
   ~
   ~  This file is part of the Arc Integration for Thunderbird, licensed under
   ~  the terms of the GNU General Public License 3.0.
   ~
   -->
<svg xmlns="http://www.w3.org/2000/svg" viewBox="0 0 32 32" width="32" height="32">
    <defs>
        <radialGradient r="20" fy="8.45" fx="3.972" cy="8.45" cx="3.972" gradientTransform="matrix(0 2.43598 -2.579 0 47.392 -10.655)" gradientUnits="userSpaceOnUse" id="appearance-32-a">
            <stop offset="0" stop-color="#90dbec"/>
            <stop offset=".262" stop-color="#42baea"/>
            <stop offset=".705" stop-color="#3689e6"/>
            <stop offset="1" stop-color="#2b63a0"/>
        </radialGradient>
        <clipPath id="appearance-32-w">
            <path d="M25.6 4.631c-11.035 0-20 8.958-20 19.985 0 11.026 8.965 19.984 20 19.984s20-8.958 20-19.984c0-11.027-8.965-19.985-20-19.985z" opacity=".582" fill="url(#appearance-32-a)" enable-background="accumulate"/>
        </clipPath>
        <linearGradient id="appearance-32-x" x1="26" y1="46" x2="26" y2="2" gradientUnits="userSpaceOnUse">
            <stop offset="0" stop-color="#dfded1"/>
            <stop offset="1" stop-color="#e8e7e0"/>
        </linearGradient>
    </defs>
    <g transform="translate(-53 -400)">
        <circle cx="69" cy="416" r="14" fill="#fcfcfc"/>
        <g clip-path="url(#appearance-32-w)" transform="matrix(.6 0 0 .60047 53.64 401.22)">
            <rect width="44" height="44" x="2" y="2" ry="14.988" rx="15" fill="url(#appearance-32-x)" transform="translate(1.6 .6)"/>
            <g fill-rule="evenodd">
                <path d="M25.6 24.6L6.225 43.975A8.98 8.98 0 0 0 12.6 46.6h7.094z" fill="#139dcb"/>
                <path d="M25.6 24.6l-5.906 22h11.812z" fill="#3ed4f0"/>
                <path d="M25.6 24.6l5.906 22H38.6a8.98 8.98 0 0 0 6.375-2.625z" fill="#32d439"/>
                <path d="M25.6 24.6l19.375 19.375A8.98 8.98 0 0 0 47.6 37.6v-7.094z" fill="#cee834"/>
                <path d="M47.6 18.694l-22 5.906 22 5.906z" fill="#ffe600"/>
                <path d="M44.975 5.225L25.6 24.6l22-5.906V11.6a8.98 8.98 0 0 0-2.625-6.375z" fill="#f7ac1b"/>
                <path d="M31.506 2.6l-5.906 22L44.975 5.225A8.98 8.98 0 0 0 38.6 2.6z" fill="#fa7c1a"/>
                <path d="M19.694 2.6l5.906 22 5.906-22z" fill="#ee332c"/>
                <path d="M25.6 24.6l-22 5.906V37.6a8.98 8.98 0 0 0 2.625 6.375z" fill="#421ca8"/>
                <path d="M3.6 18.694v11.812l22-5.906z" fill="#e861e2"/>
                <path d="M12.6 2.6a8.98 8.98 0 0 0-6.375 2.625L25.6 24.6l-5.906-22z" fill="#ff5474"/>
                <path d="M6.225 5.225A8.98 8.98 0 0 0 3.6 11.6v7.094l22 5.906z" fill="#e92f61"/>
            </g>
            <g fill="#fff">
                <path d="M12.6 2.6a8.98 8.98 0 0 0-9 9v1.156A25.09 25.09 0 0 1 13.756 2.6zm24.844 0A25.09 25.09 0 0 1 47.6 12.756V11.6c0-4.986-4.014-9-9-9zM3.6 36.444V37.6c0 4.986 4.014 9 9 9h1.156A25.09 25.09 0 0 1 3.6 36.444zm44 0A25.09 25.09 0 0 1 37.444 46.6H38.6c4.986 0 9-4.014 9-9z" opacity=".1"/>
                <path d="M13.756 2.6A25.09 25.09 0 0 0 3.6 12.756v23.688A25.09 25.09 0 0 0 13.756 46.6h23.688A25.09 25.09 0 0 0 47.6 36.444V12.756A25.09 25.09 0 0 0 37.444 2.6zm11.844 2c11.046 0 20 8.954 20 20s-8.954 20-20 20-20-8.954-20-20 8.954-20 20-20z" opacity=".2"/>
            </g>
        </g>
        <ellipse cx="69" cy="416" rx="14.5" ry="14.5" fill="none" stroke="#4f6698" stroke-opacity=".267"/>
        <ellipse ry="12" rx="11.999" cy="416" cx="69.001" opacity=".25" fill="#fff"/>
        <ellipse cx="69" cy="416" rx="11.5" ry="11.5" fill="none" stroke="#4f6698" stroke-opacity=".267"/>
    </g>
</svg>
