<?xml version="1.0" encoding="UTF-8" standalone="no"?>
<!--
   ~  Copyright (c) 2017-2019 Nicola Fiori
   ~
   ~  This file is part of the Arc Integration for Thunderbird, licensed under
   ~  the terms of the GNU General Public License 3.0.
   ~
   -->
<svg xmlns="http://www.w3.org/2000/svg" viewBox="0 0 8.467 8.467" width="32" height="32">
    <path d="M4.387.53a.388.388 0 0 0-.272.11L1.428 3.32a.388.388 0 0 0-.099.373c.035.13.13.226.26.26a.387.387 0 0 0 .372-.099l2.575-2.568H6.64v2.159L3.31 6.769 1.972 5.43l2.191-2.183h.508v.534L3.285 5.169a.366.366 0 0 0-.099.36c.035.13.142.226.273.26a.365.365 0 0 0 .359-.099l1.498-1.501a.373.373 0 0 0 .124-.26V2.873a.38.38 0 0 0-.384-.385h-1.04a.388.388 0 0 0-.273.112L1.168 5.169a.379.379 0 0 0 0 .533l1.87 1.861a.378.378 0 0 0 .532 0l3.715-3.709a.373.373 0 0 0 .123-.26L7.396.913a.374.374 0 0 0-.149-.298.355.355 0 0 0-.222-.087z" fill="#7d859b"/>
</svg>
