<?xml version="1.0" encoding="UTF-8" standalone="no"?>
<!--
   ~  Copyright (c) 2017-2019 Nicola Fiori
   ~
   ~  This file is part of the Arc Integration for Thunderbird, licensed under
   ~  the terms of the GNU General Public License 3.0.
   ~
   -->
<svg xmlns="http://www.w3.org/2000/svg" viewBox="0 0 8.467 8.467" width="32" height="32">
    <path d="M1.323.265h5.82v7.408h-5.82V.265z" fill="#fafafa"/>
    <path d="M1.19.133h6.086v7.673H1.191V.133z" fill="none" stroke="#4f6698" stroke-width=".265" stroke-linejoin="round" stroke-opacity=".267"/>
    <path d="M3.936 1.587a.149.149 0 0 0-.15.15v.502a1.766 1.766 0 0 0-.455.195l-.363-.362a.142.142 0 0 0-.204 0l-.428.427a.142.142 0 0 0 0 .205l.363.363a1.766 1.766 0 0 0-.196.456h-.502a.149.149 0 0 0-.149.148v.596c0 .082.066.149.149.149h.502c.042.163.112.314.196.455l-.363.363a.142.142 0 0 0 0 .205l.428.428a.142.142 0 0 0 .204 0l.363-.363c.142.083.293.153.456.195v.502c0 .083.066.15.149.15h.595a.149.149 0 0 0 .149-.15v-.502c.163-.042.314-.112.456-.195l.362.363a.142.142 0 0 0 .205 0l.428-.428a.142.142 0 0 0 0-.205l-.363-.363c.084-.141.154-.292.195-.455h.503a.149.149 0 0 0 .149-.15v-.595a.148.148 0 0 0-.15-.148h-.502a1.766 1.766 0 0 0-.195-.456l.363-.363a.142.142 0 0 0 0-.205l-.428-.427a.142.142 0 0 0-.205 0l-.362.362a1.766 1.766 0 0 0-.456-.195v-.502a.149.149 0 0 0-.149-.15zm.297 1.49a.893.893 0 1 1 0 1.785.893.893 0 0 1 0-1.786z" fill-opacity=".059"/>
    <path d="M3.936 1.587a.149.149 0 0 0-.15.15v.502a1.766 1.766 0 0 0-.455.195l-.363-.362a.142.142 0 0 0-.204 0l-.428.427a.142.142 0 0 0 0 .205l.363.363a1.766 1.766 0 0 0-.196.456h-.502a.149.149 0 0 0-.149.148v.596c0 .082.066.149.149.149h.502c.042.163.112.314.196.455l-.363.363a.142.142 0 0 0 0 .205l.428.428a.142.142 0 0 0 .204 0l.363-.363c.142.083.293.153.456.195v.502c0 .083.066.15.149.15h.595a.149.149 0 0 0 .149-.15v-.502c.163-.042.314-.112.456-.195l.362.363a.142.142 0 0 0 .205 0l.428-.428a.142.142 0 0 0 0-.205l-.363-.363c.084-.141.154-.292.195-.455h.503a.149.149 0 0 0 .149-.15v-.595a.148.148 0 0 0-.15-.148h-.502a1.766 1.766 0 0 0-.195-.456l.363-.363a.142.142 0 0 0 0-.205l-.428-.427a.142.142 0 0 0-.205 0l-.362.362a1.766 1.766 0 0 0-.456-.195v-.502a.149.149 0 0 0-.149-.15zm.115.265h.364v.592l.2.051c.132.034.26.093.386.167l.177.104.423-.423.258.259-.423.422.104.177c.075.127.133.255.167.387l.051.2h.592v.363h-.592l-.05.199a1.54 1.54 0 0 1-.168.387l-.104.177.423.422-.258.259-.423-.423-.177.104a1.502 1.502 0 0 1-.387.167l-.199.051v.592h-.364v-.592l-.199-.051a1.505 1.505 0 0 1-.387-.167l-.176-.104-.423.423-.258-.259.422-.422-.104-.177a1.503 1.503 0 0 1-.166-.387l-.052-.199h-.591v-.364h.591l.052-.199c.034-.132.092-.26.166-.387l.104-.177-.422-.422.258-.259.423.423.176-.104c.127-.075.255-.133.387-.167l.2-.05zm.182.96a1.16 1.16 0 0 0-1.157 1.157c0 .636.521 1.158 1.157 1.158s1.158-.522 1.158-1.158c0-.636-.522-1.157-1.158-1.157zm0 .264a.893.893 0 1 1 0 1.786.893.893 0 0 1 0-1.786z" fill="#58698f" fill-opacity=".208"/>
</svg>
