<?xml version="1.0" encoding="UTF-8" standalone="no"?>
<!--
   ~  Copyright (c) 2017-2019 Nicola Fiori
   ~
   ~  This file is part of the Arc Integration for Thunderbird, licensed under
   ~  the terms of the GNU General Public License 3.0.
   ~
   -->
<svg xmlns="http://www.w3.org/2000/svg" viewBox="0 0 8.467 8.467" width="32" height="32">
    <path d="M3.703.484a.186.186 0 0 0-.184.19v.54a.09.09 0 0 1-.067.086 3.01 3.01 0 0 0-.741.31.09.09 0 0 1-.108-.015l-.385-.384a.174.174 0 0 0-.127-.058.182.182 0 0 0-.132.052l-.752.753c-.073.073-.071.182.005.259l.385.385a.09.09 0 0 1 .014.108c-.133.229-.239.48-.309.742a.09.09 0 0 1-.086.066h-.54a.186.186 0 0 0-.19.184v1.06c0 .102.083.184.19.184h.54a.09.09 0 0 1 .086.066c.07.262.176.513.309.743a.09.09 0 0 1-.014.108l-.385.384c-.076.077-.078.186-.005.26l.752.752c.073.073.182.071.259-.005l.385-.385a.09.09 0 0 1 .108-.014c.229.133.48.239.741.309a.09.09 0 0 1 .067.086v.54c0 .107.082.19.184.19h1.059a.186.186 0 0 0 .184-.19v-.54a.09.09 0 0 1 .066-.086c.262-.07.512-.176.742-.31a.09.09 0 0 1 .108.015l.384.385c.077.076.186.078.259.005l.752-.753c.073-.073.071-.182-.005-.259l-.385-.384a.09.09 0 0 1-.014-.108c.134-.23.24-.48.309-.743a.09.09 0 0 1 .086-.066h.54c.107 0 .19-.082.19-.184v-1.06a.186.186 0 0 0-.19-.184h-.54a.09.09 0 0 1-.086-.066 3.037 3.037 0 0 0-.309-.742.09.09 0 0 1 .014-.108l.385-.385c.076-.077.078-.186.005-.259l-.752-.753c-.073-.073-.182-.071-.259.006l-.384.384a.09.09 0 0 1-.108.014 3.033 3.033 0 0 0-.742-.309.09.09 0 0 1-.066-.086v-.54a.186.186 0 0 0-.184-.19zm.53 2.499a1.25 1.25 0 0 1 0 2.499 1.25 1.25 0 0 1-1.25-1.25c0-.689.56-1.25 1.25-1.25z" fill="#eff0f1"/>
    <path d="M21.031 1.5c-.846 0-1.531.702-1.531 1.563v3.03a17.509 17.509 0 0 0-4.281 1.782l-2.156-2.156c-.305-.305-.67-.466-1.063-.469a1.523 1.523 0 0 0-1.094.438L6.687 9.905c-.598.599-.577 1.548.032 2.156l2.156 2.157A17.509 17.509 0 0 0 7.094 18.5H4.062c-.86 0-1.562.685-1.562 1.531v5.938c0 .846.702 1.531 1.563 1.531h3.03a17.509 17.509 0 0 0 1.782 4.281l-2.156 2.157c-.609.608-.63 1.557-.032 2.156l4.22 4.218c.598.599 1.547.578 2.155-.03l2.157-2.157a17.509 17.509 0 0 0 4.281 1.781v3.032c0 .86.685 1.562 1.531 1.562h5.938c.846 0 1.531-.702 1.531-1.563v-3.03a17.509 17.509 0 0 0 4.281-1.782l2.157 2.156c.608.609 1.557.63 2.156.032l4.218-4.22c.599-.598.578-1.547-.03-2.156l-2.157-2.156a17.509 17.509 0 0 0 1.781-4.281h3.032c.86 0 1.562-.685 1.562-1.531V20.03c0-.846-.702-1.531-1.563-1.531h-3.03a17.509 17.509 0 0 0-1.782-4.281l2.156-2.156c.609-.609.63-1.558.032-2.157l-4.22-4.219c-.598-.598-1.547-.577-2.156.032l-2.156 2.156a17.509 17.509 0 0 0-4.281-1.78V3.062c0-.86-.685-1.562-1.531-1.562zM24 16.5c3.588 0 6.5 2.912 6.5 6.5s-2.912 6.5-6.5 6.5a6.502 6.502 0 0 1-6.5-6.5c0-3.588 2.912-6.5 6.5-6.5z" fill="none" stroke="#2b3853" stroke-width="1.483" stroke-linejoin="round" stroke-opacity=".275" transform="matrix(.17839 0 0 .1785 -.05 .127)"/>
    <path d="M24.006 10.394c-6.951 0-12.607 5.652-12.607 12.6 0 6.947 5.656 12.599 12.607 12.599 6.952 0 12.608-5.652 12.608-12.6 0-6.947-5.656-12.599-12.608-12.599z" fill="none" stroke="#344365" stroke-width="1.483" stroke-opacity=".169" transform="matrix(.17839 0 0 .1785 -.05 .127)"/>
    <path d="M4.232 2.115c-1.167 0-2.117.95-2.117 2.117s.95 2.117 2.117 2.117 2.117-.95 2.117-2.117-.95-2.117-2.117-2.117zm0 .977a1.14 1.14 0 1 1 0 2.28 1.14 1.14 0 0 1 0-2.28z" fill-opacity=".035"/>
</svg>
