<?xml version="1.0" encoding="UTF-8" standalone="no"?>
<!--
   ~  Copyright (c) 2017 Nicola Fiori (JD342)
   ~
   ~  This file is part of the Arc Integration for Thunderbird, licensed under
   ~  the terms of the GNU General Public License 3.0.
   ~
   -->
<svg xmlns="http://www.w3.org/2000/svg" viewBox="0 0 16 16">
    <path d="M3 1c-1.108 0-2 .892-2 2v10c0 1.108.892 2 2 2h10c1.108 0 2-.892 2-2V3c0-1.108-.892-2-2-2H3zm5.42 1.516c.985 0 1.864.2 2.639.603a4.286 4.286 0 0 1 1.793 1.719c.42.743.63 1.599.63 2.57 0 .645-.102 1.237-.308 1.774-.206.537-.497.956-.873 1.255-.376.3-.814.45-1.31.45-.332 0-.626-.078-.886-.235a1.348 1.348 0 0 1-.544-.63h-.108c-.22.268-.485.48-.799.636a2.364 2.364 0 0 1-1.047.229c-.792 0-1.416-.237-1.873-.711-.456-.48-.685-1.132-.685-1.955 0-.936.296-1.694.887-2.276.595-.582 1.383-.873 2.363-.873.362 0 .781.036 1.256.108.474.067.86.154 1.16.261l-.154 3.284c0 .626.171.94.511.94.287 0 .514-.208.684-.624.17-.42.256-.969.256-1.645 0-.72-.15-1.357-.45-1.908A3.002 3.002 0 0 0 10.3 4.221c-.542-.296-1.163-.444-1.865-.444-.9 0-1.686.189-2.358.565A3.739 3.739 0 0 0 4.54 5.953c-.354.698-.531 1.503-.531 2.416 0 1.24.33 2.191.988 2.854.663.658 1.62.986 2.873.986a8.43 8.43 0 0 0 1.611-.168 10.264 10.264 0 0 0 1.631-.455v1.295c-.949.403-2.012.603-3.19.603-1.7 0-3.026-.446-3.98-1.341-.948-.896-1.423-2.14-1.423-3.733 0-1.105.244-2.111.732-3.015a5.275 5.275 0 0 1 2.088-2.116c.9-.51 1.927-.763 3.082-.763zm-.041 3.779c-.56 0-.995.174-1.309.523-.309.35-.463.826-.463 1.43 0 .944.385 1.416 1.155 1.416.398 0 .701-.14.912-.422.215-.286.346-.752.39-1.396l.088-1.485a3.738 3.738 0 0 0-.773-.066z"/>
</svg>
