<?xml version="1.0" encoding="UTF-8" standalone="no"?>
<!--
   ~  Copyright (c) 2017 Nicola Fiori (JD342)
   ~
   ~  This file is part of the Arc Integration for Thunderbird, licensed under
   ~  the terms of the GNU General Public License 3.0.
   ~
   -->
<svg xmlns="http://www.w3.org/2000/svg" viewBox="0 0 4.233 4.233">
    <path d="M1.72.265a.396.396 0 0 0-.397.396v2.117c0 .22.177.397.397.397h1.587c.22 0 .397-.177.397-.397V.661a.396.396 0 0 0-.397-.396zm.264.529h1.059c.073 0 .132.059.132.132v1.588a.132.132 0 0 1-.132.132H1.984a.132.132 0 0 1-.132-.132V.926c0-.073.06-.132.132-.132zm-1.058.264a.396.396 0 0 0-.397.397v2.117c0 .22.177.397.397.397h1.588c.22 0 .396-.177.396-.397V3.44H1.191a.132.132 0 0 1-.133-.133V1.058z"/>
</svg>
