<?xml version="1.0" encoding="UTF-8" standalone="no"?>
<!--
   ~  Copyright (c) 2017-2019 Nicola Fiori
   ~
   ~  This file is part of the Arc Integration for Thunderbird, licensed under
   ~  the terms of the GNU General Public License 3.0.
   ~
   -->
<svg xmlns="http://www.w3.org/2000/svg" viewBox="0 0 4.233 4.233">
    <path d="M1.025.266a.042.042 0 0 0-.016.009A.042.042 0 0 0 1 .283S.93.369.868.489C.808.61.76.764.827.895c.208.403.551.996.81 1.397.04-.136.09-.274.174-.413V1.87l.14-.223L1.067.283a.042.042 0 0 0-.009-.008H1.05V.266h-.025zm2.158 0v.009h-.008a.042.042 0 0 0-.009.008L2.042 2.019c-.089.148-.145.397-.215.595a.86.86 0 0 1-.116.24c-.043.053-.082.073-.14.058h-.025a.542.542 0 0 0-.347.008.63.63 0 0 0-.306.257.575.575 0 0 0-.1.38.46.46 0 0 0 .257.347.563.563 0 0 0 .463.025.63.63 0 0 0 .397-.595l.008-.017a1.44 1.44 0 0 0 0-.016c0-.002-.008.001-.008 0v-.017a.75.75 0 0 1 .041-.347c.053-.126.164-.243.397-.306a.042.042 0 0 0 .017-.008.042.042 0 0 0 .008-.009c.234-.313.755-1.182 1.033-1.72.068-.13.02-.284-.041-.405a1.172 1.172 0 0 0-.132-.206.042.042 0 0 0-.009-.008.042.042 0 0 0-.016-.009h-.025zm-.67 2.58c-.029.02-.054.04-.09.05a.594.594 0 0 0-.141.05.764.764 0 0 1 .041.338v.017c0 .001-.008-.002-.008 0v.016l.008.017a.63.63 0 0 0 .397.595.563.563 0 0 0 .463-.025.458.458 0 0 0 .256-.347.575.575 0 0 0-.099-.38.63.63 0 0 0-.306-.257.542.542 0 0 0-.347-.008h-.025c-.058.015-.097-.005-.14-.058l-.009-.008zm-1.124.347a.211.211 0 0 1 .083.017.168.168 0 0 1 .082.124.243.243 0 0 1-.041.165c-.07.117-.215.174-.306.124a.18.18 0 0 1-.083-.132.24.24 0 0 1 .042-.166.258.258 0 0 1 .223-.132zm1.455 0a.258.258 0 0 1 .223.132.24.24 0 0 1 .042.166.18.18 0 0 1-.083.132c-.091.05-.235-.007-.306-.124a.243.243 0 0 1-.041-.165.168.168 0 0 1 .082-.124.211.211 0 0 1 .083-.017z"/>
</svg>
