<?xml version="1.0" encoding="UTF-8" standalone="no"?>
<!--
   ~  Copyright (c) 2017-2019 Nicola Fiori
   ~
   ~  This file is part of the Arc Integration for Thunderbird, licensed under
   ~  the terms of the GNU General Public License 3.0.
   ~
   -->
<svg xmlns="http://www.w3.org/2000/svg" viewBox="0 0 16 16">
    <path d="M2.813 1A1 1 0 0 0 2 2v13a1 1 0 0 0 1 1h10a1 1 0 0 0 1-1V5.562a1 1 0 0 0-.281-.718L10.156 1.28A1 1 0 0 0 9.438 1H3a1 1 0 0 0-.093 0 1 1 0 0 0-.094 0zM4 3h5v3h3v8H4V3z"/>
    <path d="M6.419 4.999c-.86 0-1.557.722-1.557 1.582 0 .86.696 1.557 1.557 1.557C7.279 8.138 8 7.442 8 6.58A1.6 1.6 0 0 0 6.42 5zm0 1.002c.32 0 .58.26.58.58 0 .32-.26.554-.58.554a.537.537 0 0 1-.554-.554c0-.32.234-.58.554-.58zM9 8h2v1H9zm-4 2h6v1H5zm0 2h6v1H5z"/>
</svg>
