<?xml version="1.0" encoding="UTF-8" standalone="no"?>
<!--
   ~  Copyright (c) 2017-2019 Nicola Fiori
   ~
   ~  This file is part of the Arc Integration for Thunderbird, licensed under
   ~  the terms of the GNU General Public License 3.0.
   ~
   -->
<svg xmlns="http://www.w3.org/2000/svg" viewBox="0 0 16 16">
    <path d="M8 0a8 8 0 1 0 0 16A8 8 0 0 0 8 0zm.563 1.031a6.89 6.89 0 0 1 3.406 1.219l-.281-.063-.344-.124-.5.124-.313.22v.187L10 2.938l.125.5.281-.22.188.22.219.124.124-.374-.062-.22.063-.155.312-.282h.125l-.125.313v.281c.123-.034.25-.047.375-.063l-.344.25-.031.157-.406.344-.406-.094v-.25l-.188.125.094.219h-.313l-.156.28-.188.22-.374.062.218.219.063.218h-.281L8.969 5v.563h.156l.156.156.344-.157.125-.343.25-.157.031-.125.406-.093.22.25.25.125-.157.281.219-.063.125-.28-.281-.313h.124l.25.218.063.313.219.281.062-.406.125-.063c.133.14.233.311.344.47l.438.03.218.157-.094.156-.25.219h-.343l-.469-.157-.219.032-.187.187-.5-.5-.344-.093-.5.062-.469.125c-.255.295-.508.6-.75.906L8.25 7.5l.125.125-.25.375.281.656c.228.263.46.519.688.781l.344-.28.124.155.376-.218.124.125h.344l.219.25-.125.437.25.281-.031.5.219.376-.157.312c-.013.227-.031.46-.031.688.11.308.24.595.344.906l.062.5v.25h.188l.312-.188H12l.5-.594-.063-.218.376-.313-.282-.281.313-.25.312-.188.125-.156-.094-.344v-.874l.25-.532.282-.312.344-.813v-.219c-.161.021-.312.052-.47.063l.313-.344.438-.312.25-.282v-.28c-.054-.104-.103-.241-.156-.345l-.22.282L14.064 7l-.25-.188v-.375l.28.313.313-.031c.14.13.284.227.406.375l.094-.125c.05.338.094.68.094 1.031a7 7 0 0 1-10.156 6.25c.051-.04.125-.094.125-.094l-.063-.125.219-.219.063-.218.343-.094.25-.688-.062-.156.156-.281.406-.094.188-.469-.032-.624.313-.438.031-.438c-.426-.215-.826-.434-1.25-.656l-.218-.437-.375-.094-.22-.563-.5.063-.468-.344-.469.438v.062c-.141-.041-.311-.046-.437-.125l-.094-.312V8.03l-.313.031c.027-.21.068-.446.094-.656h-.187l-.188.25-.187.094-.25-.156-.032-.313.032-.375.406-.281h.313l.062-.188.375.094.281.344.063-.594.5-.406.156-.469.375-.156.219-.281.468-.094.22-.375H4.47l.437-.188h.313l.406-.156.063.407.187-.282-.219-.156.063-.156-.157-.156-.187-.032.063-.187-.157-.281-.312.124.062-.25-.375-.218-.281.531.031.156-.281.125-.188.406-.062-.375-.5-.187-.094-.281.656-.375.282-.281.031-.344-.156-.094H4.03c.228-.158.442-.307.688-.438v.094l-.219.188-.156.375h.312l.094-.25.031-.063c.126-.09.247-.194.375-.281l.313.094c.194.134.368.272.562.406l.313-.281L6 1.969l-.125-.313-.563-.062v-.062c.01-.005.023.003.032 0l.187.062.157-.157.28-.062c.071-.035.148-.065.22-.094L6 1.47l.656.468v.282l-.25.281.344.688.25-.126.281-.468a10.2 10.2 0 0 0 1.219-.47l-.031.188.187.124.344-.25L8.844 2l-.25.125-.031-.031.343-.938zM4.75 2.22l.281.219h.25v-.25L5 2.062zm-.938.187l-.062.156s-.103.015-.188.032c.081-.067.167-.125.25-.188zm8.438.031c.065.05.124.105.188.157l-.25.281-.344-.375h.344zm-3.031.407v.187l.125.156v.282l-.063.406.313-.063.25-.218-.219-.219a5.843 5.843 0 0 0-.219-.531zm-.281.406l-.188.063.031.374.281-.156zm3.656 3.344l.281.343.375.782.219.25-.125.281.219.25c-.092.006-.188 0-.282 0-.17-.365-.307-.743-.437-1.125l-.219-.25-.125-.469zM1.03 7.5c.042.1.219.406.219.406l.531.313.563.156.219.313.374.28.188-.062L3.28 9v.031l-.187.594-.156.219.03.125-.124.469.469.843.468.438L4 12l-.031.656.156.344-.156.688s.002.023 0 .03A7.01 7.01 0 0 1 1 8c0-.168.02-.335.031-.5z"/>
</svg>
