<?xml version="1.0" encoding="UTF-8" standalone="no"?>
<!--
   ~  Copyright (c) 2017-2019 Nicola Fiori
   ~
   ~  This file is part of the Arc Integration for Thunderbird, licensed under
   ~  the terms of the GNU General Public License 3.0.
   ~
   -->
<svg xmlns="http://www.w3.org/2000/svg" viewBox="0 0 67.733 67.733">
    <path d="M16.933 16.933a4.234 4.234 0 0 0-3.927 2.663L4.539 40.762c-.2.5-.304 1.033-.306 1.571v16.934c.16 1.993 2.25 4.233 4.234 4.233h50.8c1.998 0 4.233-2.233 4.233-4.233l.215-15.602v-.166h-.008a4.226 4.226 0 0 0-.207-1.166l-8.682-22.498a4.234 4.234 0 0 0-4.018-2.902h-8.467V25.4h5.408l7.011 16.933H44.45L40.217 50.8H28.195l-4.912-8.467H13.031L19.802 25.4H25.4v-8.467z"/>
    <path d="M29.633 4.233V31.75h-8.466l12.7 12.7 12.7-12.7H38.1V4.233z"/>
</svg>
