<?xml version="1.0" encoding="UTF-8" standalone="no"?>
<!--
   ~  Copyright (c) 2017 Nicola Fiori (JD342)
   ~
   ~  This file is part of the Arc Integration for Thunderbird, licensed under
   ~  the terms of the GNU General Public License 3.0.
   ~
   -->
<svg xmlns="http://www.w3.org/2000/svg" viewBox="0 0 16 16">
    <path d="M8.96 7.966c-1.263 0-2.17.145-2.72.434-.544.289-.885.782-1.02 1.48-.114.555-.02.997.28 1.326.3.323.765.484 1.395.484.867 0 1.624-.306 2.27-.918.646-.618 1.071-1.437 1.275-2.457l.077-.349H8.961m3.248-.646l-1.2 5.677H9.446l.4-1.69c-.47.58-1 1.007-1.59 1.285-.59.272-1.27.408-2.04.408-.976 0-1.696-.272-2.16-.816-.465-.55-.607-1.284-.426-2.203.216-1.071.734-1.879 1.556-2.423.828-.544 1.953-.816 3.376-.817h2.194l.034-.153c.142-.72.014-1.275-.383-1.666-.39-.397-1.014-.595-1.87-.595-.545 0-1.089.065-1.633.195a7.676 7.676 0 0 0-1.599.587l.29-1.446a12.064 12.064 0 0 1 1.76-.493A8.122 8.122 0 0 1 8.96 3c1.377 0 2.335.357 2.874 1.071.539.715.663 1.797.374 3.249"/>
</svg>
