<?xml version="1.0" encoding="UTF-8" standalone="no"?>
<!--
   ~  Copyright (c) 2017 Nicola Fiori (JD342)
   ~
   ~  This file is part of the Arc Integration for Thunderbird, licensed under
   ~  the terms of the GNU General Public License 3.0.
   ~
   -->
<svg xmlns="http://www.w3.org/2000/svg" viewBox="0 0 4.233 4.233">
    <path d="M2.117.269c-.395 0-.711.276-.711.628 0 .04.003.09.008.14-.063.032-.072.156-.017.282a.452.452 0 0 0 .075.124c.007.033.016.061.025.099.026.076.135.216.231.339.01.095.011.19-.008.298-.277.22-.985.317-.984.545l-.033.182h.885v-.264a.263.263 0 0 1 .24-.265.263.263 0 0 1 .024 0h.53a.263.263 0 0 1 .264.265v.264h.884l-.033-.182c0-.195-.71-.318-.983-.545a1.318 1.318 0 0 1-.009-.257c.088-.129.202-.296.232-.38l.025-.116a.427.427 0 0 0 .066-.107c.053-.12.045-.234-.009-.273l.009-.149c0-.352-.317-.628-.711-.628zm-.265 2.373v.529h-.53V3.7h.53v.53h.53V3.7h.528v-.53h-.529v-.528z"/>
</svg>
