<?xml version="1.0" encoding="UTF-8" standalone="no"?>
<!--
   ~  Copyright (c) 2017 Nicola Fiori (JD342)
   ~
   ~  This file is part of the Arc Integration for Thunderbird, licensed under
   ~  the terms of the GNU General Public License 3.0.
   ~
   -->
<svg xmlns="http://www.w3.org/2000/svg" viewBox="0 0 16 16">
    <path d="M1.688 1.004A.869.869 0 0 0 1 1.848v4.41a.85.85 0 0 0 .25.595l7.916 7.914c.312.31.878.31 1.19 0l4.41-4.41c.312-.312.312-.878 0-1.19L6.852 1.255a.851.851 0 0 0-.595-.25H1.845a.842.842 0 0 0-.157 0zm2.816 2.002a1.502 1.502 0 1 1 0 3.003 1.502 1.502 0 0 1 0-3.003z"/>
</svg>
