<?xml version="1.0" encoding="UTF-8" standalone="no"?>
<!--
   ~  Copyright (c) 2017-2019 Nicola Fiori
   ~
   ~  This file is part of the Arc Integration for Thunderbird, licensed under
   ~  the terms of the GNU General Public License 3.0.
   ~
   -->
<svg xmlns="http://www.w3.org/2000/svg" viewBox="0 0 16 16">
    <path d="M7.906 3c-.51 0-1.024.043-1.562.156a10.12 10.12 0 0 0-1.657.5v1.438a6.09 6.09 0 0 1 1.47-.563 6.51 6.51 0 0 1 1.593-.218c.856 0 1.53.196 2 .593.476.391.719.968.719 1.688v.156H8.25c-1.423 0-2.468.268-3.188.813-.714.544-1.093 1.334-1.093 2.406 0 .918.302 1.669.875 2.219.578.544 1.337.812 2.312.812.771 0 1.436-.134 1.969-.406.533-.278.987-.703 1.344-1.281V13h1.562V7.312c0-1.45-.35-2.535-1.031-3.25C10.32 3.349 9.284 3 7.906 3zm1 4.969h1.563v.343c0 1.02-.286 1.851-.813 2.47-.521.611-1.195.906-2.062.905-.63 0-1.132-.145-1.5-.468-.363-.329-.563-.788-.563-1.344 0-.697.263-1.18.75-1.469.488-.289 1.361-.437 2.625-.437zM4 14v1h8v-1H4z"/>
</svg>
