<?xml version="1.0" encoding="UTF-8" standalone="no"?>
<!--
   ~  Copyright (c) 2017 Nicola Fiori (JD342)
   ~
   ~  This file is part of the Arc Integration for Thunderbird, licensed under
   ~  the terms of the GNU General Public License 3.0.
   ~
   -->
<svg xmlns="http://www.w3.org/2000/svg" viewBox="0 0 4.233 4.233">
    <path d="M2.423.191l-.084.06C1.507.836 1 1.497.866 2.142c-.068.322-.041.641.084.938l-.475.476.204.204L3.76.68 3.554.474l-.824.824A3.181 3.181 0 0 1 2.441.3zm-.379 1.505c.025.074.052.144.079.21l-.65.65c.08-.361.231-.556.571-.86zm.993.09l-.644.644c.016.022.034.045.048.066.1.14.179.235.229.319a.57.57 0 0 1 .084.27c.015.16-.059.352-.144.5a1.607 1.607 0 0 1-.175.246l-.132.157.199-.048a.757.757 0 0 0 .216-.115c.095-.064.207-.156.313-.27.213-.23.406-.564.367-.975-.034-.354-.188-.56-.361-.794zM1.533 3.29l-.27.27c.1.116.217.228.354.331l.199.15-.096-.228s-.088-.195-.163-.445l-.024-.078z"/>
</svg>
