<?xml version="1.0" encoding="UTF-8" standalone="no"?>
<!--
   ~  Copyright (c) 2016 horst3180 <http://horst3180.deviantart.com/>
   ~  Copyright (c) 2017 Nicola Fiori (JD342)
   ~
   ~  This file is part of the Arc Integration for Thunderbird, with content
   ~  originating from horst3180's Arc Icon Theme.
   ~
   ~  The Arc Integration for Thunderbird is free software: you can
   ~  redistribute it and/or modify it under the terms of the
   ~  GNU General Public License Version 3 as published by the
   ~  Free Software Foundation.
   ~
   ~  The Arc Integration for Thunderbird is distributed in the hope
   ~  that it will be useful, but WITHOUT ANY WARRANTY; without even the
   ~  implied warranty of MERCHANTABILITY or FITNESS FOR A PARTICULAR PURPOSE.
   ~  See the GNU General Public License for more details.
   ~
   ~  You should have received a copy of the GNU General Public License
   ~  along with the Arc Integration for Thunderbird.
   ~  If not, see <http://www.gnu.org/licenses/>.
   ~
   -->

<svg
   xmlns:dc="http://purl.org/dc/elements/1.1/"
   xmlns:cc="http://creativecommons.org/ns#"
   xmlns:rdf="http://www.w3.org/1999/02/22-rdf-syntax-ns#"
   xmlns:svg="http://www.w3.org/2000/svg"
   xmlns="http://www.w3.org/2000/svg"
   xmlns:sodipodi="http://sodipodi.sourceforge.net/DTD/sodipodi-0.dtd"
   xmlns:inkscape="http://www.inkscape.org/namespaces/inkscape"
   width="16"
   height="16"
   viewBox="0 0 4.2333332 4.2333332"
   version="1.1"
   id="icon"
   inkscape:version="0.92.1 r15371"
   sodipodi:docname="copy.svg">
  <defs
     id="defs3048" />
  <sodipodi:namedview
     id="base"
     pagecolor="#ffffff"
     bordercolor="#666666"
     borderopacity="1.0"
     inkscape:pageopacity="0.0"
     inkscape:pageshadow="2"
     inkscape:zoom="32"
     inkscape:cx="7.0846402"
     inkscape:cy="6.4145758"
     inkscape:document-units="mm"
     inkscape:current-layer="layer1-11"
     showgrid="false"
     units="px"
     inkscape:window-width="2736"
     inkscape:window-height="1714"
     inkscape:window-x="0"
     inkscape:window-y="54"
     inkscape:window-maximized="1" />
  <metadata
     id="metadata3051">
    <rdf:RDF>
      <cc:Work
         rdf:about="">
        <dc:format>image/svg+xml</dc:format>
        <dc:type
           rdf:resource="http://purl.org/dc/dcmitype/StillImage" />
        <dc:title></dc:title>
      </cc:Work>
    </rdf:RDF>
  </metadata>
  <g
     inkscape:label="Layer 1"
     inkscape:groupmode="layer"
     id="layer1"
     transform="translate(0,-292.76667)">
    <g
       id="edit-copy_16"
       transform="matrix(0.26458333,0,0,0.26458333,-5.0270833,243.72293)"
       inkscape:label="#g7903">
      <rect
         y="185.36217"
         x="19"
         height="16.000002"
         width="16"
         id="rect6628-1-8-2-2-2-2-1-2"
         style="opacity:1;fill:none;fill-opacity:1;stroke:none;stroke-width:2;stroke-linecap:butt;stroke-linejoin:miter;stroke-miterlimit:4;stroke-dasharray:none;stroke-dashoffset:0;stroke-opacity:1" />
      <g
         transform="translate(19,185.36217)"
         id="g4670"
         style="display:inline">
        <g
           style="display:inline"
           inkscape:label="Calque 1"
           id="layer1-11">
          <path
             inkscape:connector-curvature="0"
             style="display:inline;fill:#040404;fill-opacity:1;stroke:none"
             d="M 6.5,1 C 5.669,1 5,1.669 5,2.5 v 8 C 5,11.331 5.669,12 6.5,12 h 6 c 0.831,0 1.5,-0.669 1.5,-1.5 v -8 C 14,1.669 13.331,1 12.5,1 Z m 1,2 h 4 C 11.777,3 12,3.223 12,3.5 v 6 C 12,9.777 11.777,10 11.5,10 h -4 C 7.223,10 7,9.777 7,9.5 v -6 C 7,3.223 7.223,3 7.5,3 Z m -4,1 C 2.669,4 2,4.669 2,5.5 v 8 C 2,14.331 2.669,15 3.5,15 h 6 C 10.331,15 11,14.331 11,13.5 V 13 H 8.5 4.5 C 4.223,13 4,12.777 4,12.5 V 6.5 4 Z"
             id="Symbol-1"
             sodipodi:nodetypes="ccccccccccccccccccccccccccccccc" />
        </g>
      </g>
    </g>
  </g>
</svg>
