<?xml version="1.0" encoding="UTF-8" standalone="no"?>
<!--
   ~  Copyright (c) 2016 horst3180 <http://horst3180.deviantart.com/>
   ~  Copyright (c) 2017 Nicola Fiori (JD342)
   ~
   ~  This file is part of the Arc Integration for Thunderbird, with content
   ~  originating from horst3180's Arc Icon Theme.
   ~
   ~  The Arc Integration for Thunderbird is free software: you can
   ~  redistribute it and/or modify it under the terms of the
   ~  GNU General Public License Version 3 as published by the
   ~  Free Software Foundation.
   ~
   ~  The Arc Integration for Thunderbird is distributed in the hope
   ~  that it will be useful, but WITHOUT ANY WARRANTY; without even the
   ~  implied warranty of MERCHANTABILITY or FITNESS FOR A PARTICULAR PURPOSE.
   ~  See the GNU General Public License for more details.
   ~
   ~  You should have received a copy of the GNU General Public License
   ~  along with the Arc Integration for Thunderbird.
   ~  If not, see <http://www.gnu.org/licenses/>.
   ~
   -->

<svg
   xmlns:dc="http://purl.org/dc/elements/1.1/"
   xmlns:cc="http://creativecommons.org/ns#"
   xmlns:rdf="http://www.w3.org/1999/02/22-rdf-syntax-ns#"
   xmlns:svg="http://www.w3.org/2000/svg"
   xmlns="http://www.w3.org/2000/svg"
   xmlns:sodipodi="http://sodipodi.sourceforge.net/DTD/sodipodi-0.dtd"
   xmlns:inkscape="http://www.inkscape.org/namespaces/inkscape"
   width="16"
   height="16"
   viewBox="0 0 4.2333332 4.2333332"
   version="1.1"
   id="icon"
   inkscape:version="0.92.1 r15371"
   sodipodi:docname="register.svg">
  <defs
     id="defs3048" />
  <sodipodi:namedview
     id="base"
     pagecolor="#ffffff"
     bordercolor="#666666"
     borderopacity="1.0"
     inkscape:pageopacity="0.0"
     inkscape:pageshadow="2"
     inkscape:zoom="32"
     inkscape:cx="7.0846402"
     inkscape:cy="6.4145758"
     inkscape:document-units="mm"
     inkscape:current-layer="layer1-88"
     showgrid="false"
     units="px"
     inkscape:window-width="1368"
     inkscape:window-height="1714"
     inkscape:window-x="1368"
     inkscape:window-y="54"
     inkscape:window-maximized="0" />
  <metadata
     id="metadata3051">
    <rdf:RDF>
      <cc:Work
         rdf:about="">
        <dc:format>image/svg+xml</dc:format>
        <dc:type
           rdf:resource="http://purl.org/dc/dcmitype/StillImage" />
        <dc:title></dc:title>
      </cc:Work>
    </rdf:RDF>
  </metadata>
  <g
     inkscape:label="Layer 1"
     inkscape:groupmode="layer"
     id="layer1"
     transform="translate(0,-292.76667)">
    <g
       id="edit-copy_16"
       transform="matrix(0.26458333,0,0,0.26458333,-5.0270833,243.72293)"
       inkscape:label="#g7903">
      <g
         transform="translate(19,185.36217)"
         id="g4670"
         style="display:inline">
        <g
           style="display:inline"
           inkscape:label="Calque 1"
           id="layer1-11">
          <g
             id="edit-cut_16"
             transform="matrix(0.99992127,0,0,1,-37.997008,-185.36217)"
             inkscape:label="#g7909">
            <g
               transform="translate(37.999999,185.36841)"
               id="g4688"
               style="display:inline">
              <g
                 style="display:inline"
                 inkscape:label="Calque 1"
                 id="layer1-01">
                <g
                   id="edit-paste_16"
                   transform="matrix(1.0000787,0,0,1,-38.00299,-204.36841)"
                   inkscape:label="#g7915">
                  <g
                     transform="translate(37.984375,204.36217)"
                     id="g4742"
                     style="display:inline">
                    <g
                       style="display:inline"
                       inkscape:label="Calque 1"
                       id="layer1-88">
                      <g
                         id="contact-new_16"
                         transform="translate(-37.984375,-109.36216)"
                         inkscape:label="#g7793">
                        <rect
                           y="109.36216"
                           x="38"
                           height="16.000002"
                           width="16"
                           id="rect6628-1-8-2-2-2-1"
                           style="opacity:1;fill:none;fill-opacity:1;stroke:none;stroke-width:2;stroke-linecap:butt;stroke-linejoin:miter;stroke-miterlimit:4;stroke-dasharray:none;stroke-dashoffset:0;stroke-opacity:1" />
                        <g
                           transform="translate(38,110.34616)"
                           id="g4326"
                           style="display:inline">
                          <g
                             style="display:inline"
                             inkscape:label="Calque 1"
                             id="layer1-6">
                            <path
                               inkscape:connector-curvature="0"
                               style="display:inline;fill:#000000;fill-opacity:1;stroke:none;enable-background:new"
                               d="m 8,0.03125 c -1.490787,0 -2.6875,1.0431118 -2.6875,2.375 C 5.3161,2.5588866 5.32718,2.7476455 5.34375,2.9375 5.107819,3.0578919 5.070802,3.5253646 5.28125,4 5.3624,4.1830218 5.450658,4.3483096 5.5625,4.46875 5.5892,4.5941543 5.62396,4.7022958 5.65625,4.84375 5.756269,5.1309738 6.167296,5.6605602 6.53125,6.125 6.56755,6.4832838 6.57301,6.8424604 6.5,7.25 5.452424,8.081958 2.777235,8.451213 2.78125,9.3125 L 2.65625,10 h 2.25 H 6 V 9 A 0.99332376,0.99332376 0 0 1 6.90625,8 0.99332376,0.99332376 0 0 1 7,8 h 2 a 0.99332376,0.99332376 0 0 1 1,1 v 1 h 1.1875 2.15625 l -0.125,-0.6875 C 13.21445,8.575354 10.534734,8.111287 9.5,7.25 9.4581,6.9200799 9.44743,6.606203 9.46875,6.28125 9.799651,5.7926478 10.233024,5.1617245 10.34375,4.84375 10.38444,4.6790798 10.40589,4.5476494 10.4375,4.40625 10.53521,4.2919247 10.615367,4.1626861 10.6875,4 10.887348,3.5492648 10.859931,3.1150965 10.65625,2.96875 10.67048,2.7729011 10.68156,2.5736356 10.6875,2.40625 10.687501,1.074362 9.490788,0.03125 8,0.03125 Z M 7,9 v 2 H 5 v 2 h 2 v 2 h 2 v -2 h 2 V 11 H 9 V 9 Z"
                               id="path3798" />
                          </g>
                        </g>
                      </g>
                    </g>
                  </g>
                </g>
              </g>
            </g>
          </g>
        </g>
      </g>
    </g>
  </g>
</svg>
