<?xml version="1.0" encoding="UTF-8" standalone="no"?>
<!--
   ~  Copyright (c) 2016 horst3180 <http://horst3180.deviantart.com/>
   ~  Copyright (c) 2017 Nicola Fiori (JD342)
   ~
   ~  This file is part of the Arc Integration for Thunderbird, with content
   ~  originating from horst3180's Arc Icon Theme.
   ~
   ~  The Arc Integration for Thunderbird is free software: you can
   ~  redistribute it and/or modify it under the terms of the
   ~  GNU General Public License Version 3 as published by the
   ~  Free Software Foundation.
   ~
   ~  The Arc Integration for Thunderbird is distributed in the hope
   ~  that it will be useful, but WITHOUT ANY WARRANTY; without even the
   ~  implied warranty of MERCHANTABILITY or FITNESS FOR A PARTICULAR PURPOSE.
   ~  See the GNU General Public License for more details.
   ~
   ~  You should have received a copy of the GNU General Public License
   ~  along with the Arc Integration for Thunderbird.
   ~  If not, see <http://www.gnu.org/licenses/>.
   ~
   -->

<svg
   xmlns:dc="http://purl.org/dc/elements/1.1/"
   xmlns:cc="http://creativecommons.org/ns#"
   xmlns:rdf="http://www.w3.org/1999/02/22-rdf-syntax-ns#"
   xmlns:svg="http://www.w3.org/2000/svg"
   xmlns="http://www.w3.org/2000/svg"
   xmlns:sodipodi="http://sodipodi.sourceforge.net/DTD/sodipodi-0.dtd"
   xmlns:inkscape="http://www.inkscape.org/namespaces/inkscape"
   width="16"
   height="16"
   viewBox="0 0 4.2333332 4.2333332"
   version="1.1"
   id="icon"
   inkscape:version="0.92.1 r15371"
   sodipodi:docname="unjunk.svg">
  <defs
     id="defs3048" />
  <sodipodi:namedview
     id="base"
     pagecolor="#ffffff"
     bordercolor="#666666"
     borderopacity="1.0"
     inkscape:pageopacity="0.0"
     inkscape:pageshadow="2"
     inkscape:zoom="32"
     inkscape:cx="7.0846402"
     inkscape:cy="6.4145758"
     inkscape:document-units="mm"
     inkscape:current-layer="mail-mark-notjunk_16"
     showgrid="false"
     units="px"
     inkscape:window-width="1368"
     inkscape:window-height="1714"
     inkscape:window-x="1368"
     inkscape:window-y="54"
     inkscape:window-maximized="0" />
  <metadata
     id="metadata3051">
    <rdf:RDF>
      <cc:Work
         rdf:about="">
        <dc:format>image/svg+xml</dc:format>
        <dc:type
           rdf:resource="http://purl.org/dc/dcmitype/StillImage" />
        <dc:title></dc:title>
      </cc:Work>
    </rdf:RDF>
  </metadata>
  <g
     inkscape:label="Layer 1"
     inkscape:groupmode="layer"
     id="layer1"
     transform="translate(0,-292.76667)">
    <g
       id="edit-copy_16"
       transform="matrix(0.26458333,0,0,0.26458333,-5.0270833,243.72293)"
       inkscape:label="#g7903">
      <g
         transform="translate(19,185.36217)"
         id="g4670"
         style="display:inline">
        <g
           style="display:inline"
           inkscape:label="Calque 1"
           id="layer1-11">
          <g
             id="edit-cut_16"
             transform="matrix(0.99992127,0,0,1,-37.997008,-185.36217)"
             inkscape:label="#g7909">
            <g
               transform="translate(37.999999,185.36841)"
               id="g4688"
               style="display:inline">
              <g
                 style="display:inline"
                 inkscape:label="Calque 1"
                 id="layer1-01">
                <g
                   id="edit-paste_16"
                   transform="matrix(1.0000787,0,0,1,-38.00299,-204.36841)"
                   inkscape:label="#g7915">
                  <g
                     transform="translate(37.984375,204.36217)"
                     id="g4742"
                     style="display:inline">
                    <g
                       style="display:inline"
                       inkscape:label="Calque 1"
                       id="layer1-88">
                      <g
                         id="mail-mark-notjunk_16"
                         transform="translate(0.01562525,-489.36215)"
                         inkscape:label="#g8364">
                        <rect
                           y="489.36215"
                           x="0"
                           height="16.000002"
                           width="16"
                           id="rect6628-1-8-2-2-6-8-67-3-2"
                           style="opacity:1;fill:none;fill-opacity:1;stroke:none;stroke-width:2;stroke-linecap:butt;stroke-linejoin:miter;stroke-miterlimit:4;stroke-dasharray:none;stroke-dashoffset:0;stroke-opacity:1" />
                        <g
                           id="layer1-45"
                           inkscape:label="Layer 1"
                           transform="translate(4.7359e-4,457.17465)">
                          <g
                             transform="matrix(0.72747922,0,0,0.72763351,-0.00274501,13.26506)"
                             inkscape:label="Layer 1"
                             id="layer1-2-3"
                             style="opacity:1;fill:#000000;fill-opacity:1">
                            <path
                               id="path4355-13"
                               d="m 12.59375,1 -0.4375,0.3125 C 7.8315565,4.344607 5.1996533,7.7752 4.5,11.125 4.1501667,12.7999 4.2890833,14.455847 4.9375,16 l -2.46875,2.46875 1.0625,1.0625 16,-16 -1.0625,-1.0625 L 14.1875,6.75 C 13.572499,5.5106855 13.021304,3.9209392 12.6875,1.5625 Z M 10.625,8.8125 c 0.125471,0.3871057 0.268452,0.7518745 0.40625,1.09375 l -3.375,3.375 C 8.0701139,11.404387 8.8560759,10.395147 10.625,8.8125 Z M 15.78125,9.28125 12.4375,12.625 c 0.08044,0.118375 0.172702,0.234853 0.25,0.34375 0.518187,0.73 0.927167,1.22341 1.1875,1.65625 0.260347,0.432826 0.378726,0.789236 0.4375,1.40625 0.07867,0.826266 -0.30768,1.827924 -0.75,2.59375 -0.442307,0.765827 -0.90625,1.28125 -0.90625,1.28125 l -0.6875,0.8125 1.03125,-0.25 c 0.280773,-0.07027 0.631627,-0.260457 1.125,-0.59375 0.493373,-0.33328 1.072747,-0.80989 1.625,-1.40625 1.104507,-1.192747 2.109797,-2.925327 1.90625,-5.0625 -0.175045,-1.838007 -0.976969,-2.907151 -1.875,-4.125 z M 7.96875,17.09375 6.5625,18.5 c 0.5241739,0.598624 1.1285579,1.179662 1.84375,1.71875 L 9.4375,21 l -0.5,-1.1875 c 0,0 -0.45587,-1.0129 -0.84375,-2.3125 -0.038541,-0.129127 -0.088572,-0.272107 -0.125,-0.40625 z"
                               style="color:#000000;font-style:normal;font-variant:normal;font-weight:normal;font-stretch:normal;line-height:normal;font-family:sans-serif;-inkscape-font-specification:sans-serif;text-indent:0;text-align:start;text-decoration:none;text-decoration-line:none;letter-spacing:normal;word-spacing:normal;text-transform:none;writing-mode:lr-tb;direction:ltr;baseline-shift:baseline;text-anchor:start;display:inline;overflow:visible;visibility:visible;fill:#000000;fill-opacity:1;fill-rule:evenodd;stroke:none;stroke-width:19.78388023;marker:none;enable-background:accumulate"
                               inkscape:connector-curvature="0"
                               transform="translate(0,26)" />
                          </g>
                        </g>
                      </g>
                    </g>
                  </g>
                </g>
              </g>
            </g>
          </g>
        </g>
      </g>
    </g>
  </g>
</svg>
