<?xml version="1.0" encoding="UTF-8" standalone="no"?>
<!--
   ~  Copyright 2016 horst3180 <http://horst3180.deviantart.com/>
   ~  Copyright 2017 Nicola Fiori (JD342)
   ~
   ~  This file contains work originating from horst3180's Arc Icon Theme
   ~  and is part of the Arc Integration for Thunderbird, licensed under
   ~  the terms of the GNU General Public License 3.0.
   ~
   -->

<svg xmlns="http://www.w3.org/2000/svg" width="16" height="16" version="1">
    <path d="M8.302 1a.762.762 0 0 0-.535.219L2.492 6.47a.76.76 0 0 0-.195.73.701.701 0 0 0 .51.51.762.762 0 0 0 .73-.194l5.057-5.033h4.133v4.23l-6.54 6.516-2.626-2.626 4.304-4.279h.997V7.37l-2.723 2.723a.716.716 0 0 0-.195.705.733.733 0 0 0 .535.51.718.718 0 0 0 .705-.194l2.942-2.942a.73.73 0 0 0 .243-.51V5.595a.745.745 0 0 0-.754-.754H7.573a.762.762 0 0 0-.535.22l-5.057 5.032a.741.741 0 0 0 0 1.045l3.671 3.647a.743.743 0 0 0 1.046 0l7.293-7.27a.73.73 0 0 0 .244-.51l-.025-5.251a.732.732 0 0 0-.291-.584.698.698 0 0 0-.438-.17H8.302z"/>
</svg>
