<?xml version="1.0" encoding="UTF-8" standalone="no"?>
<!--
   ~  Copyright 2016 horst3180 <http://horst3180.deviantart.com/>
   ~  Copyright 2017 Nicola Fiori (JD342)
   ~
   ~  This file contains work originating from horst3180's Arc Icon Theme
   ~  and is part of the Arc Integration for Thunderbird, licensed under
   ~  the terms of the GNU General Public License 3.0.
   ~
   -->

<svg xmlns="http://www.w3.org/2000/svg" viewBox="0 0 16 16">
    <path d="M8 .778c-2.256 0-4.065 1.7-4.065 3.806.005.224.022.548.043.82-.385.165-.414.916-.086 1.688.13.306.295.54.476.735.043.217.032.314.086.562.15.453.747 1.34 1.297 2.075.055.563.11 1.132 0 1.773C4.167 13.553.08 14.118.087 15.48L0 16h16l-.086-.52c-.007-1.165-4.1-1.88-5.665-3.242a8.5 8.5 0 0 1-.045-1.557c.502-.773 1.173-1.786 1.34-2.29.06-.257.083-.43.13-.65a2.57 2.57 0 0 0 .39-.65c.31-.73.29-1.43-.043-1.64.02-.297.034-.61.043-.866 0-2.106-1.81-3.806-4.065-3.806z"/>
</svg>
