<?xml version="1.0" encoding="UTF-8" standalone="no"?>
<!--
   ~  Copyright 2016 horst3180 <http://horst3180.deviantart.com/>
   ~  Copyright 2017 Nicola Fiori (JD342)
   ~
   ~  This file contains work originating from horst3180's Arc Icon Theme
   ~  and is part of the Arc Integration for Thunderbird, licensed under
   ~  the terms of the GNU General Public License 3.0.
   ~
   -->

<svg xmlns="http://www.w3.org/2000/svg" width="16" height="16" version="1">
    <path d="M7.906 3c-.51 0-1.024.043-1.562.156a10.12 10.12 0 0 0-1.657.5v1.438a6.09 6.09 0 0 1 1.47-.563 6.51 6.51 0 0 1 1.593-.218c.856 0 1.53.196 2 .593.476.391.719.968.719 1.688v.156H8.25c-1.423 0-2.468.268-3.188.813A2.659 2.659 0 0 0 4.095 9H3v1h.969c.007.904.309 1.644.875 2.188.578.544 1.337.812 2.312.812.771 0 1.436-.134 1.969-.406.533-.278.987-.703 1.344-1.281V13h1.562v-3H13V9h-.969V7.312c0-1.45-.35-2.535-1.031-3.25C10.32 3.349 9.284 3 7.906 3zm1 4.969h1.563v.343c0 .245-.03.466-.063.688H5.72c.126-.244.318-.45.562-.594.488-.289 1.361-.437 2.625-.437zM5.531 10h4.594a3.17 3.17 0 0 1-.469.781c-.521.612-1.195.907-2.062.906-.63 0-1.132-.145-1.5-.468A1.731 1.731 0 0 1 5.53 10z"/>
</svg>
