<?xml version="1.0" encoding="UTF-8" standalone="no"?>
<!--
   ~  Copyright 2016 horst3180 <http://horst3180.deviantart.com/>
   ~  Copyright 2017 Nicola Fiori (JD342)
   ~
   ~  This file contains work originating from horst3180's Arc Icon Theme
   ~  and is part of the Arc Integration for Thunderbird, licensed under
   ~  the terms of the GNU General Public License 3.0.
   ~
   -->

<svg xmlns="http://www.w3.org/2000/svg" viewBox="0 0 16 16">
    <path d="M8 1a7 7 0 1 0 0 14A7 7 0 0 0 8 1zm-.094 1.969A1 1 0 0 1 9 4v5a1 1 0 1 1-2 0V4a1 1 0 0 1 .781-1 1 1 0 0 1 .125-.031zM8 11a1 1 0 1 1 0 2 1 1 0 0 1 0-2z"/>
</svg>
