<?xml version="1.0" encoding="UTF-8" standalone="no"?>
<!--
   ~  Copyright 2016 horst3180 <http://horst3180.deviantart.com/>
   ~  Copyright 2017 Nicola Fiori (JD342)
   ~
   ~  This file contains work originating from horst3180's Arc Icon Theme
   ~  and is part of the Arc Integration for Thunderbird, licensed under
   ~  the terms of the GNU General Public License 3.0.
   ~
   -->

<svg xmlns="http://www.w3.org/2000/svg" width="16" height="16" viewBox="0 0 4.2333332 4.2333332">
    <path d="M2.425.192l-.087.062C1.506.837 1.001 1.495.867 2.14c-.135.645.112 1.27.751 1.752l.198.149-.099-.227s-.084-.196-.16-.446c-.074-.25-.134-.556-.097-.754.076-.402.226-.597.586-.918.116.359.265.613.397.8.1.14.175.233.225.316a.59.59 0 0 1 .089.275c.015.159-.061.349-.146.496-.086.147-.174.25-.174.25L2.3 3.99l.2-.05a.768.768 0 0 0 .219-.116c.095-.064.207-.154.313-.268.213-.23.403-.562.364-.974-.039-.405-.238-.618-.438-.901-.201-.283-.414-.645-.519-1.383z"/>
</svg>
