<?xml version="1.0" encoding="UTF-8" standalone="no"?>
<!--
   ~  Copyright 2016 horst3180 <http://horst3180.deviantart.com/>
   ~  Copyright 2017 Nicola Fiori (JD342)
   ~
   ~  This file contains work originating from horst3180's Arc Icon Theme
   ~  and is part of the Arc Integration for Thunderbird, licensed under
   ~  the terms of the GNU General Public License 3.0.
   ~
   -->

<svg xmlns="http://www.w3.org/2000/svg" width="16" height="16">
    <path d="M3.508 1c-.716-.007-1.38.53-1.469 1.25-.064.894-.015 1.82-.031 2.719.005 2.889-.019 5.768 0 8.656.057.724.671 1.344 1.406 1.375 3.062.007 6.126.002 9.188 0 .822-.005 1.435-.767 1.406-1.563-.005-3.682.018-7.38 0-11.062-.058-.76-.726-1.404-1.5-1.375h-9zm1 2c2.367.007 4.728-.024 7.094 0 .497.106.397.685.406 1.063V12.5c.003.495-.536.532-.906.5-2.232-.007-4.457.024-6.688 0-.497-.106-.398-.685-.406-1.063V3.5a.501.501 0 0 1 .5-.5zM8 5c-.554 0-1 .014-1 .031V7H5.031C5.014 7 5 7.446 5 8s.014 1 .031 1H7v1.969c0 .017.446.031 1 .031s1-.014 1-.031V9h1.969c.017 0 .031-.446.031-1s-.014-1-.031-1H9V5.031C9 5.014 8.554 5 8 5z"/>
</svg>
