<?xml version="1.0" encoding="UTF-8" standalone="no"?>
<!--
   ~  Copyright 2016 horst3180 <http://horst3180.deviantart.com/>
   ~  Copyright 2017 Nicola Fiori (JD342)
   ~
   ~  This file contains work originating from horst3180's Arc Icon Theme
   ~  and is part of the Arc Integration for Thunderbird, licensed under
   ~  the terms of the GNU General Public License 3.0.
   ~
   -->

<svg xmlns="http://www.w3.org/2000/svg" viewBox="0 0 16 16">
    <path d="M8 1.015c-1.49 0-2.688 1.043-2.688 2.375.004.153.015.342.032.531-.236.12-.273.588-.063 1.063.081.183.17.348.282.469.026.125.061.233.093.375.1.287.511.817.875 1.281.037.358.042.717-.031 1.125-1.048.832-3.723 1.201-3.719 2.062l-.125.688H6v-1a.993.993 0 0 1 .906-1 .993.993 0 0 1 .094 0h2a.993.993 0 0 1 1 1v1H13.344l-.125-.688c-.005-.737-2.684-1.2-3.719-2.062a4.98 4.98 0 0 1-.031-.969c.33-.488.764-1.12.875-1.437.04-.165.062-.296.094-.438.097-.114.177-.243.25-.406.2-.45.172-.885-.032-1.031.014-.196.026-.395.031-.563 0-1.332-1.196-2.375-2.687-2.375zM7 9.984v2H5v2h2v2h2v-2h2v-2H9v-2H7z"/>
</svg>
