<?xml version="1.0" encoding="UTF-8" standalone="no"?>
<!--
   ~  Copyright 2016 horst3180 <http://horst3180.deviantart.com/>
   ~  Copyright 2017 Nicola Fiori (JD342)
   ~
   ~  This file contains work originating from horst3180's Arc Icon Theme
   ~  and is part of the Arc Integration for Thunderbird, licensed under
   ~  the terms of the GNU General Public License 3.0.
   ~
   -->

<svg xmlns="http://www.w3.org/2000/svg" viewBox="0 0 16 16">
    <path d="M3.5 1.017c-.716-.007-1.38.53-1.469 1.25-.063.894-.015 1.82-.031 2.719.005 2.888-.019 5.767 0 8.656.057.723.672 1.344 1.406 1.375 1.992.005 3.984 0 5.977 0-.134-.247-.261-.484-.524-.967-.173-.319-.416-.79-.552-1.037l-1.038.004c-.954.003-1.908.01-2.863 0-.497-.106-.397-.685-.406-1.063V3.517a.501.501 0 0 1 .5-.5c2.367.007 4.728-.024 7.094 0 .497.106.397.685.406 1.062v2.715c.226.215.432.45.584.719.475.842.542 1.899.164 2.883-.062.161-.178.298-.26.45L14 13.187c-.004-3.593.018-7.201 0-10.794-.058-.76-.726-1.404-1.5-1.375zM11.5 13c-.138.021-.28.027-.406.016h-.518l.041.076c.238.437.33.61.473.873l1.045.02z"/>
    <path d="M10.022 6.862a3.264 3.264 0 0 0-.994-.003l.976 1.729c.2.355-.024.763-.45 1.009l-.77.444c-.43.24-.91.208-1.11-.147l-.977-1.729a3.22 3.22 0 0 0-.514.848c-.565 1.47.237 2.891 1.792 3.174.325.059.667.045.994.003.026-.004 1.518 2.827 1.518 2.827h3.505l-2.667-4.13c.207-.256.37-.544.489-.85.565-1.471-.237-2.893-1.792-3.175z" style="line-height:normal;-inkscape-font-specification:Sans;text-indent:0;text-align:start;text-decoration-line:none;text-transform:none;block-progression:tb;marker:none"/>
</svg>
