<?xml version="1.0" encoding="UTF-8" standalone="no"?>
<!--
   ~  Copyright (c) 2017 Nicola Fiori (JD342)
   ~
   ~  This file is part of the Arc Integration for Thunderbird, licensed under
   ~  the terms of the GNU General Public License 3.0.
   ~
   -->

<svg xmlns="http://www.w3.org/2000/svg" viewBox="0 0 128 128">

    <use id="inbox" href="#inbox-symbol" width="16" height="16"/>
    <use id="write" href="#write-symbol" width="16" height="16" transform="translate(16 0)"/>
    <use id="gear" href="#gear-symbol" width="16" height="16" transform="translate(32 0)"/>
    <use id="task" href="#task-symbol" width="16" height="16" transform="translate(48 0)"/>
    <use id="close" href="#close-symbol" width="16" height="16" transform="translate(64 0)"/>
    <use id="addressbook" href="#addressbook-symbol" width="16" height="16" transform="translate(80 0)"/>
    <use id="attachment" href="#attachment-symbol" width="16" height="16" transform="translate(96 0)"/>
    <use id="avatar" href="#avatar-symbol" width="16" height="16" transform="translate(112 0)"/>
    <use id="calendar" href="#calendar-symbol" width="16" height="16" transform="translate(0 16)"/>
    <use id="centeralign" href="#centeralign-symbol" width="16" height="16" transform="translate(16 16)"/>
    <use id="check" href="#check-symbol" width="16" height="16" transform="translate(32 16)"/>
    <use id="copy" href="#copy-symbol" width="16" height="16" transform="translate(48 16)"/>
    <use id="crossed" href="#crossed-symbol" width="16" height="16" transform="translate(64 16)"/>
    <use id="cut" href="#cut-symbol" width="16" height="16" transform="translate(80 16)"/>
    <use id="delete" href="#delete-symbol" width="16" height="16" transform="translate(96 16)"/>
    <use id="document" href="#document-symbol" width="16" height="16" transform="translate(112 16)"/>
    <use id="down" href="#down-symbol" width="16" height="16" transform="translate(0 32)"/>
    <use id="download" href="#download-symbol" width="16" height="16" transform="translate(16 32)"/>
    <use id="drive" href="#drive-symbol" width="16" height="16" transform="translate(32 32)"/>
    <use id="folder" href="#folder-symbol" width="16" height="16" transform="translate(48 32)"/>
    <use id="forward" href="#forward-symbol" width="16" height="16" transform="translate(64 32)"/>
    <use id="frame" href="#frame-symbol" width="16" height="16" transform="translate(80 32)"/>
    <use id="globe" href="#globe-symbol" width="16" height="16" transform="translate(96 32)"/>
    <use id="important" href="#important-symbol" width="16" height="16" transform="translate(112 32)"/>
    <use id="indent" href="#indent-symbol" width="16" height="16" transform="translate(0 48)"/>
    <use id="italic" href="#italic-symbol" width="16" height="16" transform="translate(16 48)"/>
    <use id="junk" href="#junk-symbol" width="16" height="16" transform="translate(32 48)"/>
    <use id="lock" href="#lock-symbol" width="16" height="16" transform="translate(48 48)"/>
    <use id="mail" href="#mail-symbol" width="16" height="16" transform="translate(64 48)"/>
    <use id="menu" href="#menu-symbol" width="16" height="16" transform="translate(80 48)"/>
    <use id="message" href="#message-symbol" width="16" height="16" transform="translate(96 48)"/>
    <use id="new" href="#new-symbol" width="16" height="16" transform="translate(112 48)"/>
    <use id="register" href="#register-symbol" width="16" height="16" transform="translate(0 64)"/>
    <use id="paste" href="#paste-symbol" width="16" height="16" transform="translate(16 64)"/>
    <use id="printer" href="#printer-symbol" width="16" height="16" transform="translate(32 64)"/>
    <use id="properties" href="#properties-symbol" width="16" height="16" transform="translate(48 64)"/>
    <use id="reply" href="#reply-symbol" width="16" height="16" transform="translate(64 64)"/>
    <use id="replyall" href="#replyall-symbol" width="16" height="16" transform="translate(80 64)"/>
    <use id="rightalign" href="#rightalign-symbol" width="16" height="16" transform="translate(96 64)"/>
    <use id="schedule" href="#schedule-symbol" width="16" height="16" transform="translate(112 64)"/>
    <use id="starred" href="#starred-symbol" width="16" height="16" transform="translate(0 80)"/>
    <use id="status" href="#status-symbol" width="16" height="16" transform="translate(16 80)"/>
    <use id="sync" href="#sync-symbol" width="16" height="16" transform="translate(32 80)"/>
    <use id="tag" href="#tag-symbol" width="16" height="16" transform="translate(48 80)"/>
    <use id="time" href="#time-symbol" width="16" height="16" transform="translate(64 80)"/>
    <use id="trash" href="#trash-symbol" width="16" height="16" transform="translate(80 80)"/>
    <use id="underline" href="#underline-symbol" width="16" height="16" transform="translate(96 80)"/>
    <use id="unindent" href="#unindent-symbol" width="16" height="16" transform="translate(112 80)"/>
    <use id="unjunk" href="#unjunk-symbol" width="16" height="16" transform="translate(0 96)"/>
    <use id="unstarred" href="#unstarred-symbol" width="16" height="16" transform="translate(16 96)"/>
    <use id="search" href="#search-symbol" width="16" height="16" transform="translate(32 96)"/>
    <use id="left" href="#left-symbol" width="16" height="16" transform="translate(48 96)"/>
    <use id="right" href="#right-symbol" width="16" height="16" transform="translate(64 96)"/>

    <symbol id="inbox-symbol" viewBox="0 0 67.733331 67.733336">
        <path d="M16.933 16.933a4.234 4.234 0 0 0-3.927 2.663L4.539 40.762c-.2.5-.304 1.033-.306 1.571v16.934c.16 1.993 2.25 4.233 4.234 4.233h50.8c1.998 0 4.233-2.233 4.233-4.233l.215-15.602v-.166h-.008a4.226 4.226 0 0 0-.207-1.166l-8.682-22.498a4.234 4.234 0 0 0-4.018-2.902h-8.467V25.4h5.408l7.011 16.933H44.45L40.217 50.8H28.195l-4.912-8.467H13.031L19.802 25.4H25.4v-8.467z"/>
        <path d="M29.633 4.233V31.75h-8.466l12.7 12.7 12.7-12.7H38.1V4.233z"/>
    </symbol>
    <symbol id="write-symbol" viewBox="0 0 4.2333332 4.2333335">
        <path d="M.661.265a.39.39 0 0 0-.388.33c-.017.237-.004.482-.008.72.001.764-.005 1.526 0 2.29a.4.4 0 0 0 .372.364c.81.002 1.356 0 2.166 0 .217-.001.38-.203.372-.414v-1.33l-.53.531v.551c.002.131-.141.141-.239.133-.59-.002-.915.006-1.505 0-.131-.028-.105-.182-.107-.282V.926A.133.133 0 0 1 .926.794c.626.002.986-.006 1.612 0 .082.017.103.083.107.154L3.128.47a.389.389 0 0 0-.35-.206z"/>
        <path d="M4.233.794L2.381 2.646 1.498 3l.354-.884L3.704.265z"/>
    </symbol>

    <!--
       ~ The SVG elements after this comment contain work originating from
       ~ GNOME Project's Adwaita Icon Theme.
       -->
    <symbol id="gear-symbol" viewBox="0 0 16 16">
        <path d="M8 1c-.22 0-.44.011-.656.031l-.406 2.094a5.012 5.012 0 0 0-.969.312L4.438 1.97c-.389.23-.727.514-1.063.812l.906 1.906a5.057 5.057 0 0 0-.593.813L1.594 5.22a6.91 6.91 0 0 0-.406 1.28l1.843 1a4.826 4.826 0 0 0-.03.5c0 .173.013.332.03.5l-1.843 1c.097.445.228.872.406 1.281l2.094-.281c.17.29.371.563.593.812l-.906 1.907c.336.298.674.582 1.063.812l1.531-1.469c.306.137.634.24.969.313l.406 2.094a7.118 7.118 0 0 0 1.312 0l.407-2.094c.334-.073.663-.176.968-.313l1.532 1.47c.388-.23.727-.515 1.062-.813l-.906-1.907a5.11 5.11 0 0 0 .594-.812l2.093.281a6.91 6.91 0 0 0 .407-1.281l-1.844-1c.017-.168.031-.327.031-.5s-.014-.332-.031-.5l1.844-1a6.908 6.908 0 0 0-.407-1.281l-2.093.281a5.057 5.057 0 0 0-.594-.813l.906-1.906c-.335-.298-.674-.582-1.062-.812L10.03 3.437a5.015 5.015 0 0 0-.968-.312l-.407-2.094A7.118 7.118 0 0 0 8 1zm0 4a3 3 0 1 1 0 6 3 3 0 0 1 0-6z" style="marker:none" color="#000" fill="#0a0a0a" overflow="visible"/>
    </symbol>
    <symbol id="task-symbol" viewBox="0 0 16 16">
        <g transform="translate(-60 -668)">
            <path d="M64.031 673.031V680h5l1.991-1.987-.022-4.982h-6.969z"/>
            <rect x="65" y="668" rx=".53" ry=".53" height="4" width="5.063"/>
            <path d="M62.5 669c-.293 0-.647.036-1 .313-.353.276-.531.768-.531 1.125v12.03c0 .385.127.816.437 1.126.286.285.71.386 1.094.375V684h9.969c.363 0 .76-.128 1.062-.406.303-.279.469-.711.469-1.125v-12.094c0-.333-.119-.73-.406-1a1.444 1.444 0 0 0-.969-.375h-1.656v2H72v11h-9.031v-11h.968v-2H62.5z"/>
        </g>
    </symbol>

    <!--
       ~ The SVG elements after this comment contain work originating from
       ~ horst3180's Arc Theme.
       -->
    <symbol id="close-symbol" viewBox="0 0 16 16">
        <path d="M5 5h.773a.78.78 0 0 1 .516.234L8 6.945l1.734-1.71c.2-.174.335-.23.516-.235H11v.75c0 .215-.026.413-.188.562l-1.71 1.711 1.687 1.688c.141.141.211.34.211.539V11h-.75a.761.761 0 0 1-.54-.21L8 9.077 6.29 10.79a.76.76 0 0 1-.54.211H5v-.75a.76.76 0 0 1 .21-.54l1.712-1.687-1.711-1.71A.681.681 0 0 1 5 5.75V5z"/>
    </symbol>

    <!--
       ~ The SVG elements after this comment contain work originating from
       ~ horst3180's Arc Icon Theme.
       -->
    <symbol id="addressbook-symbol" viewBox="0 0 16 16">
        <path d="M3 1c-1.108 0-2 .892-2 2v10c0 1.108.892 2 2 2h10c1.108 0 2-.892 2-2V3c0-1.108-.892-2-2-2H3zm5.42 1.516c.985 0 1.864.2 2.639.603a4.286 4.286 0 0 1 1.793 1.719c.42.743.63 1.599.63 2.57 0 .645-.102 1.237-.308 1.774-.206.537-.497.956-.873 1.255-.376.3-.814.45-1.31.45-.332 0-.626-.078-.886-.235a1.348 1.348 0 0 1-.544-.63h-.108c-.22.268-.485.48-.799.636a2.364 2.364 0 0 1-1.047.229c-.792 0-1.416-.237-1.873-.711-.456-.48-.685-1.132-.685-1.955 0-.936.296-1.694.887-2.276.595-.582 1.383-.873 2.363-.873.362 0 .781.036 1.256.108.474.067.86.154 1.16.261l-.154 3.284c0 .626.171.94.511.94.287 0 .514-.208.684-.624.17-.42.256-.969.256-1.645 0-.72-.15-1.357-.45-1.908A3.002 3.002 0 0 0 10.3 4.221c-.542-.296-1.163-.444-1.865-.444-.9 0-1.686.189-2.358.565A3.739 3.739 0 0 0 4.54 5.953c-.354.698-.531 1.503-.531 2.416 0 1.24.33 2.191.988 2.854.663.658 1.62.986 2.873.986a8.43 8.43 0 0 0 1.611-.168 10.264 10.264 0 0 0 1.631-.455v1.295c-.949.403-2.012.603-3.19.603-1.7 0-3.026-.446-3.98-1.341-.948-.896-1.423-2.14-1.423-3.733 0-1.105.244-2.111.732-3.015a5.275 5.275 0 0 1 2.088-2.116c.9-.51 1.927-.763 3.082-.763zm-.041 3.779c-.56 0-.995.174-1.309.523-.309.35-.463.826-.463 1.43 0 .944.385 1.416 1.155 1.416.398 0 .701-.14.912-.422.215-.286.346-.752.39-1.396l.088-1.485a3.738 3.738 0 0 0-.773-.066z"/>
    </symbol>
    <symbol id="attachment-symbol" viewBox="0 0 16 16">
        <path d="M8.302 1a.762.762 0 0 0-.535.219L2.492 6.47a.76.76 0 0 0-.195.73.701.701 0 0 0 .51.51.762.762 0 0 0 .73-.194l5.057-5.033h4.133v4.23l-6.54 6.516-2.626-2.626 4.304-4.279h.997V7.37l-2.723 2.723a.716.716 0 0 0-.195.705.733.733 0 0 0 .535.51.718.718 0 0 0 .705-.194l2.942-2.942a.73.73 0 0 0 .243-.51V5.595a.745.745 0 0 0-.754-.754H7.573a.762.762 0 0 0-.535.22l-5.057 5.032a.741.741 0 0 0 0 1.045l3.671 3.647a.743.743 0 0 0 1.046 0l7.293-7.27a.73.73 0 0 0 .244-.51l-.025-5.251a.732.732 0 0 0-.291-.584.698.698 0 0 0-.438-.17H8.302z"/>
    </symbol>
    <symbol id="avatar-symbol" viewBox="0 0 16 16">
        <path d="M8 .778c-2.256 0-4.065 1.7-4.065 3.806.005.224.022.548.043.82-.385.165-.414.916-.086 1.688.13.306.295.54.476.735.043.217.032.314.086.562.15.453.747 1.34 1.297 2.075.055.563.11 1.132 0 1.773C4.167 13.553.08 14.118.087 15.48L0 16h16l-.086-.52c-.007-1.165-4.1-1.88-5.665-3.242a8.5 8.5 0 0 1-.045-1.557c.502-.773 1.173-1.786 1.34-2.29.06-.257.083-.43.13-.65a2.57 2.57 0 0 0 .39-.65c.31-.73.29-1.43-.043-1.64.02-.297.034-.61.043-.866 0-2.106-1.81-3.806-4.065-3.806z"/>
    </symbol>
    <symbol id="calendar-symbol" viewBox="0 0 16 16">
        <path d="M2 0C.948 0 0 .845 0 1.938v11.124C0 14.155.948 15 2 15h11c1.052 0 2-.845 2-1.938V1.938C15 .845 14.052 0 13 0H2zm0 5h3.03v2H2V5zm4.03 0H9v2H6.03V5zM10 5h3v2h-3V5zM2 8h3.03v2H2V8zm4.03 0H9v2H6.03V8zM10 8h3v2h-3V8zm-8 3h3.03v2H2v-2zm4.03 0H9v2H6.03v-2zM10 11h3v2h-3v-2z"/>
        <path opacity=".35" d="M10 8h3v2h-3z"/>
    </symbol>
    <symbol id="centeralign-symbol" viewBox="0 0 16 16">
        <path d="M3 1v2h10V1H3zM1 4v2h14V4H1zm3 3v2h8V7H4zm0 3v2H1v1h3v2l4-2.5L4 10zm4 2.5l4 2.5v-2h3v-1h-3v-2l-4 2.5z"/>
    </symbol>
    <symbol id="check-symbol" viewBox="0 0 16 16">
        <path d="M14.055 4.093a1 1 0 0 0-1.72-.5l-6.28 6.28-2.38-2.28c-.96-.96-2.397.48-1.438 1.437l3.1 3 .718.688.72-.688 7-7a1 1 0 0 0 .28-.937z"/>
    </symbol>
    <symbol id="copy-symbol" viewBox="0 0 4.2333332 4.2333332">
        <path d="M1.72.265a.396.396 0 0 0-.397.396v2.117c0 .22.177.397.397.397h1.587c.22 0 .397-.177.397-.397V.661a.396.396 0 0 0-.397-.396zm.264.529h1.059c.073 0 .132.059.132.132v1.588a.132.132 0 0 1-.132.132H1.984a.132.132 0 0 1-.132-.132V.926c0-.073.06-.132.132-.132zm-1.058.264a.396.396 0 0 0-.397.397v2.117c0 .22.177.397.397.397h1.588c.22 0 .396-.177.396-.397V3.44H1.191a.132.132 0 0 1-.133-.133V1.058z"/>
    </symbol>
    <symbol id="crossed-symbol" viewBox="0 0 16 16">
        <path d="M7.906 3c-.51 0-1.024.043-1.562.156a10.12 10.12 0 0 0-1.657.5v1.438a6.09 6.09 0 0 1 1.47-.563 6.51 6.51 0 0 1 1.593-.218c.856 0 1.53.196 2 .593.476.391.719.968.719 1.688v.156H8.25c-1.423 0-2.468.268-3.188.813A2.659 2.659 0 0 0 4.095 9H3v1h.969c.007.904.309 1.644.875 2.188.578.544 1.337.812 2.312.812.771 0 1.436-.134 1.969-.406.533-.278.987-.703 1.344-1.281V13h1.562v-3H13V9h-.969V7.312c0-1.45-.35-2.535-1.031-3.25C10.32 3.349 9.284 3 7.906 3zm1 4.969h1.563v.343c0 .245-.03.466-.063.688H5.72c.126-.244.318-.45.562-.594.488-.289 1.361-.437 2.625-.437zM5.531 10h4.594a3.17 3.17 0 0 1-.469.781c-.521.612-1.195.907-2.062.906-.63 0-1.132-.145-1.5-.468A1.731 1.731 0 0 1 5.53 10z"/>
    </symbol>
    <symbol id="cut-symbol" viewBox="0 0 4.2333332 4.2333332">
        <path d="M1.025.266a.042.042 0 0 0-.016.009A.042.042 0 0 0 1 .283S.93.369.868.489C.808.61.76.764.827.895c.208.403.551.996.81 1.397.04-.136.09-.274.174-.413V1.87l.14-.223L1.067.283a.042.042 0 0 0-.009-.008H1.05V.266h-.025zm2.158 0v.009h-.008a.042.042 0 0 0-.009.008L2.042 2.019c-.089.148-.145.397-.215.595a.86.86 0 0 1-.116.24c-.043.053-.082.073-.14.058h-.025a.542.542 0 0 0-.347.008.63.63 0 0 0-.306.257.575.575 0 0 0-.1.38.46.46 0 0 0 .257.347.563.563 0 0 0 .463.025.63.63 0 0 0 .397-.595l.008-.017a1.44 1.44 0 0 0 0-.016c0-.002-.008.001-.008 0v-.017a.75.75 0 0 1 .041-.347c.053-.126.164-.243.397-.306a.042.042 0 0 0 .017-.008.042.042 0 0 0 .008-.009c.234-.313.755-1.182 1.033-1.72.068-.13.02-.284-.041-.405a1.172 1.172 0 0 0-.132-.206.042.042 0 0 0-.009-.008.042.042 0 0 0-.016-.009h-.025zm-.67 2.58c-.029.02-.054.04-.09.05a.594.594 0 0 0-.141.05.764.764 0 0 1 .041.338v.017c0 .001-.008-.002-.008 0v.016l.008.017a.63.63 0 0 0 .397.595.563.563 0 0 0 .463-.025.458.458 0 0 0 .256-.347.575.575 0 0 0-.099-.38.63.63 0 0 0-.306-.257.542.542 0 0 0-.347-.008h-.025c-.058.015-.097-.005-.14-.058l-.009-.008zm-1.124.347a.211.211 0 0 1 .083.017.168.168 0 0 1 .082.124.243.243 0 0 1-.041.165c-.07.117-.215.174-.306.124a.18.18 0 0 1-.083-.132.24.24 0 0 1 .042-.166.258.258 0 0 1 .223-.132zm1.455 0a.258.258 0 0 1 .223.132.24.24 0 0 1 .042.166.18.18 0 0 1-.083.132c-.091.05-.235-.007-.306-.124a.243.243 0 0 1-.041-.165.168.168 0 0 1 .082-.124.211.211 0 0 1 .083-.017z"/>
    </symbol>
    <symbol id="delete-symbol" viewBox="0 0 16 16">
        <path d="M3 7v2h10V7z"/>
    </symbol>
    <symbol id="document-symbol" viewBox="0 0 16 16">
        <path d="M2.813 1A1 1 0 0 0 2 2v13a1 1 0 0 0 1 1h10a1 1 0 0 0 1-1V5.562a1 1 0 0 0-.281-.718L10.156 1.28A1 1 0 0 0 9.438 1H3a1 1 0 0 0-.093 0 1 1 0 0 0-.094 0zM4 3h5v3h3v8H4V3z"/>
        <path d="M6.419 4.999c-.86 0-1.557.722-1.557 1.582 0 .86.696 1.557 1.557 1.557C7.279 8.138 8 7.442 8 6.58A1.6 1.6 0 0 0 6.42 5zm0 1.002c.32 0 .58.26.58.58 0 .32-.26.554-.58.554a.537.537 0 0 1-.554-.554c0-.32.234-.58.554-.58z"/>
        <path d="M9 8h2v1H9zM5 10h6v1H5zM5 12h6v1H5z"/>
    </symbol>
    <symbol id="down-symbol" viewBox="0 0 16 16">
        <g transform="matrix(.7512 0 0 .7512 -133.968 -559.145)">
            <path d="M183.781 751a1 1 0 0 0-.5 1.719l5 5 .719.687.719-.687 5-5a1.016 1.016 0 1 0-1.438-1.438L189 755.563l-4.281-4.282a1 1 0 0 0-.938-.281z"/>
            <rect y="-195" x="-752" width="1" transform="matrix(0 -1 -1 0 0 0)" ry="1" rx="0" height="1"/>
            <rect y="-184" x="-752" width="1" transform="matrix(0 -1 -1 0 0 0)" ry="1" rx="0" height="1"/>
        </g>
    </symbol>
    <symbol id="download-symbol" viewBox="0 0 16 16">
        <path d="M6 1v1.003h5V1zm0 2v2h5V3zm0 3v2H3l5.5 7L14 8h-3V6z"/>
    </symbol>
    <symbol id="drive-symbol" viewBox="0 0 16 16">
        <path d="M3 1.035c-1 0-1 1-1 1v12s0 1 1 1h10s1 0 1-1v-12s0-1-1-1zm5 2a4 4 0 1 1 0 8H4v-4a4 4 0 0 1 4-4zm0 2a2 2 0 1 0 0 4 2 2 0 0 0 0-4z"/>
    </symbol>
    <symbol id="folder-symbol" viewBox="0 0 16 16">
        <path d="M2 1c-.554 0-.446 1-1 1v1h14c0-.554-.446-1-1-1H7c0-.554-.446-1-1-1zM1.5 4C.669 4 0 4.62 0 5.389v7.222C0 13.381.669 14 1.5 14h13c.831 0 1.5-.62 1.5-1.389V5.39C16 4.619 15.331 4 14.5 4z"/>
    </symbol>
    <symbol id="forward-symbol" viewBox="0 0 16 16">
        <path d="M3.89 13.1C2.383 9.26 4.39 9.178 8 9.9v3l6-5-6-5v3c-2.166 0-3.657-.39-5.192 1.324-1.534 1.715-.722 3.349 1.083 5.876z"/>
    </symbol>
    <symbol id="frame-symbol" viewBox="0 0 16 16">
        <path d="M2 0C.948 0 0 .845 0 1.938v11.124C0 14.155.948 15 2 15h11c1.052 0 2-.845 2-1.938V1.938C15 .845 14.052 0 13 0zm11 13H2V5h11"/>
    </symbol>
    <symbol id="globe-symbol" viewBox="0 0 16 16">
        <path d="M8 0a8 8 0 1 0 0 16A8 8 0 0 0 8 0zm.563 1.031a6.89 6.89 0 0 1 3.406 1.219l-.281-.063-.344-.124-.5.124-.313.22v.187L10 2.938l.125.5.281-.22.188.22.219.124.124-.374-.062-.22.063-.155.312-.282h.125l-.125.313v.281c.123-.034.25-.047.375-.063l-.344.25-.031.157-.406.344-.406-.094v-.25l-.188.125.094.219h-.313l-.156.28-.188.22-.374.062.218.219.063.218h-.281L8.969 5v.563h.156l.156.156.344-.157.125-.343.25-.157.031-.125.406-.093.22.25.25.125-.157.281.219-.063.125-.28-.281-.313h.124l.25.218.063.313.219.281.062-.406.125-.063c.133.14.233.311.344.47l.438.03.218.157-.094.156-.25.219h-.343l-.469-.157-.219.032-.187.187-.5-.5-.344-.093-.5.062-.469.125c-.255.295-.508.6-.75.906L8.25 7.5l.125.125-.25.375.281.656c.228.263.46.519.688.781l.344-.28.124.155.376-.218.124.125h.344l.219.25-.125.437.25.281-.031.5.219.376-.157.312c-.013.227-.031.46-.031.688.11.308.24.595.344.906l.062.5v.25h.188l.312-.188H12l.5-.594-.063-.218.376-.313-.282-.281.313-.25.312-.188.125-.156-.094-.344v-.874l.25-.532.282-.312.344-.813v-.219c-.161.021-.312.052-.47.063l.313-.344.438-.312.25-.282v-.28c-.054-.104-.103-.241-.156-.345l-.22.282L14.064 7l-.25-.188v-.375l.28.313.313-.031c.14.13.284.227.406.375l.094-.125c.05.338.094.68.094 1.031a7 7 0 0 1-10.156 6.25c.051-.04.125-.094.125-.094l-.063-.125.219-.219.063-.218.343-.094.25-.688-.062-.156.156-.281.406-.094.188-.469-.032-.624.313-.438.031-.438c-.426-.215-.826-.434-1.25-.656l-.218-.437-.375-.094-.22-.563-.5.063-.468-.344-.469.438v.062c-.141-.041-.311-.046-.437-.125l-.094-.312V8.03l-.313.031c.027-.21.068-.446.094-.656h-.187l-.188.25-.187.094-.25-.156-.032-.313.032-.375.406-.281h.313l.062-.188.375.094.281.344.063-.594.5-.406.156-.469.375-.156.219-.281.468-.094.22-.375h-.688l.437-.188h.313l.406-.156.063.407.187-.282-.219-.156.063-.156-.157-.156-.187-.032.063-.187-.157-.281-.312.124.062-.25-.375-.218-.281.531.031.156-.281.125-.188.406-.062-.375-.5-.187-.094-.281.656-.375.282-.281.031-.344-.156-.094H4.03c.228-.158.442-.307.688-.438v.094l-.219.188-.156.375h.312l.094-.25.031-.063c.126-.09.247-.194.375-.281l.313.094c.194.134.368.272.562.406l.313-.281L6 1.969l-.125-.313-.563-.062v-.062c.01-.005.023.003.032 0l.187.062.157-.157.28-.062c.071-.035.148-.065.22-.094L6 1.47l.656.468v.282l-.25.281.344.688.25-.126.281-.468A10.2 10.2 0 0 0 8.5 2.125l-.031.188.187.124.344-.25L8.844 2l-.25.125-.031-.031.343-.938zM4.75 2.22l.281.219h.25v-.25L5 2.062zm-.938.187l-.062.156s-.103.015-.188.032c.081-.067.167-.125.25-.188zm8.438.031c.065.05.124.105.188.157l-.25.281-.344-.375h.344zm-3.031.407v.187l.125.156v.282l-.063.406.313-.063.25-.218-.219-.219a5.843 5.843 0 0 0-.219-.531zm-.281.406l-.188.063.031.374.281-.156zm3.656 3.344l.281.343.375.782.219.25-.125.281.219.25c-.092.006-.188 0-.282 0-.17-.365-.307-.743-.437-1.125l-.219-.25-.125-.469zM1.03 7.5c.042.1.219.406.219.406l.531.313.563.156.219.313.374.28.188-.062.156.094v.031l-.187.594-.156.219.03.125-.124.469.469.843.468.438L4 12l-.031.656.156.344-.156.688s.002.023 0 .03A7.01 7.01 0 0 1 1 8c0-.168.02-.335.031-.5z"/>
    </symbol>
    <symbol id="important-symbol" viewBox="0 0 16 16">
        <path d="M8 1a7 7 0 1 0 0 14A7 7 0 0 0 8 1zm-.094 1.969A1 1 0 0 1 9 4v5a1 1 0 1 1-2 0V4a1 1 0 0 1 .781-1 1 1 0 0 1 .125-.031zM8 11a1 1 0 1 1 0 2 1 1 0 0 1 0-2z"/>
    </symbol>
    <symbol id="indent-symbol" viewBox="0 0 16 16">
        <path d="M10 1v2H1V1h9zm5 4v2H6V5h9zM1 5l4 3-4 3V5zm12 4v2H6V9h7zm-3 4v2H1v-2h9z"/>
    </symbol>
    <symbol id="italic-symbol" viewBox="0 0 16 16">
        <path d="M8.96 7.966c-1.263 0-2.17.145-2.72.434-.544.289-.885.782-1.02 1.48-.114.555-.02.997.28 1.326.3.323.765.484 1.395.484.867 0 1.624-.306 2.27-.918.646-.618 1.071-1.437 1.275-2.457l.077-.349H8.961m3.248-.646l-1.2 5.677H9.446l.4-1.69c-.47.58-1 1.007-1.59 1.285-.59.272-1.27.408-2.04.408-.976 0-1.696-.272-2.16-.816-.465-.55-.607-1.284-.426-2.203.216-1.071.734-1.879 1.556-2.423.828-.544 1.953-.816 3.376-.817h2.194l.034-.153c.142-.72.014-1.275-.383-1.666-.39-.397-1.014-.595-1.87-.595-.545 0-1.089.065-1.633.195a7.676 7.676 0 0 0-1.599.587l.29-1.446a12.064 12.064 0 0 1 1.76-.493A8.122 8.122 0 0 1 8.96 3c1.377 0 2.335.357 2.874 1.071.539.715.663 1.797.374 3.249"/>
    </symbol>
    <symbol id="junk-symbol" viewBox="0 0 4.2333332 4.2333332">
        <path d="M2.425.192l-.087.062C1.506.837 1.001 1.495.867 2.14c-.135.645.112 1.27.751 1.752l.198.149-.099-.227s-.084-.196-.16-.446c-.074-.25-.134-.556-.097-.754.076-.402.226-.597.586-.918.116.359.265.613.397.8.1.14.175.233.225.316a.59.59 0 0 1 .089.275c.015.159-.061.349-.146.496-.086.147-.174.25-.174.25L2.3 3.99l.2-.05a.768.768 0 0 0 .219-.116c.095-.064.207-.154.313-.268.213-.23.403-.562.364-.974-.039-.405-.238-.618-.438-.901-.201-.283-.414-.645-.519-1.383z"/>
    </symbol>
    <symbol id="lock-symbol" viewBox="0 0 16 16">
        <path d="M7 2C5.355 2 4 3.355 4 5v2S3 7 3 8v5h10V8s0-1-1-1V5c0-1.645-1.355-3-3-3H7zm0 2h2c.571 0 1 .429 1 1v2H6V5c0-.571.429-1 1-1z"/>
    </symbol>
    <symbol id="mail-symbol" viewBox="0 0 16 16">
        <path d="M1 0v2a1 1 0 0 1 0 2v1a1 1 0 1 1 0 2v1a1 1 0 0 1 0 2v1a1 1 0 0 1 0 2v2h2a1 1 0 0 1 2 0h1a1 1 0 0 1 2 0h1a1 1 0 0 1 2 0h1a1 1 0 1 1 2 0h2v-2a1 1 0 1 1 0-2v-1a1 1 0 1 1 0-2V7a1 1 0 1 1 0-2V4a1 1 0 1 1 0-2V0h-2a1 1 0 1 1-2 0h-1a1 1 0 1 1-2 0H8a1 1 0 0 1-2 0H5a1 1 0 0 1-2 0H1zm2 2h11v11h-2v-2.063c0-1.066-.779-1.98-1.719-2.25-.494.48-1.07.688-1.781.688-.71 0-1.287-.208-1.781-.688-.777.28-1.718.977-1.719 2.22V13H3V2z"/>
        <path d="M10.808 6.308a2.308 2.308 0 1 1-4.616 0 2.308 2.308 0 0 1 4.616 0z"/>
    </symbol>
    <symbol id="menu-symbol" viewBox="0 0 16 16">
        <path d="M3 3h10v2H3zM3 7h10v2H3zM3 11h10v2H3z"/>
    </symbol>
    <symbol id="message-symbol" viewBox="0 0 16 16">
        <path d="M8 2C4.134 2 1 4.41 1 8s3.134 6 7 6c1.065 0 2.065-.23 2.969-.625L15 15l-1.438-3.563C14.466 10.344 15 9.486 15 8c0-3.59-3.134-6-7-6z"/>
    </symbol>
    <symbol id="new-symbol" viewBox="0 0 16 16">
        <path d="M3.508 1c-.716-.007-1.38.53-1.469 1.25-.064.894-.015 1.82-.031 2.719.005 2.889-.019 5.768 0 8.656.057.724.671 1.344 1.406 1.375 3.062.007 6.126.002 9.188 0 .822-.005 1.435-.767 1.406-1.563-.005-3.682.018-7.38 0-11.062-.058-.76-.726-1.404-1.5-1.375h-9zm1 2c2.367.007 4.728-.024 7.094 0 .497.106.397.685.406 1.063V12.5c.003.495-.536.532-.906.5-2.232-.007-4.457.024-6.688 0-.497-.106-.398-.685-.406-1.063V3.5a.501.501 0 0 1 .5-.5zM8 5c-.554 0-1 .014-1 .031V7H5.031C5.014 7 5 7.446 5 8s.014 1 .031 1H7v1.969c0 .017.446.031 1 .031s1-.014 1-.031V9h1.969c.017 0 .031-.446.031-1s-.014-1-.031-1H9V5.031C9 5.014 8.554 5 8 5z"/>
    </symbol>
    <symbol id="register-symbol" viewBox="0 0 4.2333332 4.2333332">
        <path d="M2.117.269c-.395 0-.711.276-.711.628 0 .04.003.09.008.14-.063.032-.072.156-.017.282a.452.452 0 0 0 .075.124c.007.033.016.061.025.099.026.076.135.216.231.339.01.095.011.19-.008.298-.277.22-.985.317-.984.545l-.033.182h.885v-.264a.263.263 0 0 1 .24-.265.263.263 0 0 1 .024 0h.53a.263.263 0 0 1 .264.265v.264H3.53l-.033-.182c0-.195-.71-.318-.983-.545a1.318 1.318 0 0 1-.009-.257c.088-.129.202-.296.232-.38l.025-.116a.427.427 0 0 0 .066-.107c.053-.12.045-.234-.009-.273l.009-.149c0-.352-.317-.628-.711-.628zm-.265 2.373v.529h-.53V3.7h.53v.53h.53V3.7h.528v-.53h-.529v-.528z"/>
    </symbol>
    <symbol id="paste-symbol" viewBox="0 0 4.2333332 4.2333332">
        <path d="M1.319.265V.52H.93a.396.396 0 0 0-.397.397v2.125c0 .214.168.388.38.397h.406v.132c0 .22.177.397.397.397h1.587c.22 0 .397-.177.397-.397V1.72a.39.39 0 0 0-.265-.372v-.43A.396.396 0 0 0 3.04.52h-.397V.265zm.264.264h.794v.265h-.794zm.397 1.323H3.04c.073 0 .132.06.132.132v1.323a.132.132 0 0 1-.132.133H1.98a.132.132 0 0 1-.132-.133V1.984c0-.073.059-.132.132-.132z"/>
    </symbol>
    <symbol id="printer-symbol" viewBox="0 0 16 16">
        <path d="M2 4c-.5 0-1 .5-1 1v4c0 .5.5 1 1 1h1V8h10v2h1c.5 0 1-.5 1-1V5c0-.5-.5-1-1-1H2zM4 1v2h8V1H4z"/>
        <path d="M4 9h8v5H4z"/>
    </symbol>
    <symbol id="properties-symbol" viewBox="0 0 16 16">
        <path d="M3.5 1.017c-.716-.007-1.38.53-1.469 1.25-.063.894-.015 1.82-.031 2.719.005 2.888-.019 5.767 0 8.656.057.723.672 1.344 1.406 1.375 1.992.005 3.984 0 5.977 0-.134-.247-.261-.484-.524-.967-.173-.319-.416-.79-.552-1.037l-1.038.004c-.954.003-1.908.01-2.863 0-.497-.106-.397-.685-.406-1.063V3.517a.501.501 0 0 1 .5-.5c2.367.007 4.728-.024 7.094 0 .497.106.397.685.406 1.062v2.715c.226.215.432.45.584.719.475.842.542 1.899.164 2.883-.062.161-.178.298-.26.45L14 13.187c-.004-3.593.018-7.201 0-10.794-.058-.76-.726-1.404-1.5-1.375zM11.5 13c-.138.021-.28.027-.406.016h-.518l.041.076c.238.437.33.61.473.873l1.045.02z"/>
        <path d="M10.022 6.862a3.264 3.264 0 0 0-.994-.003l.976 1.729c.2.355-.024.763-.45 1.009l-.77.444c-.43.24-.91.208-1.11-.147l-.977-1.729a3.22 3.22 0 0 0-.514.848c-.565 1.47.237 2.891 1.792 3.174.325.059.667.045.994.003.026-.004 1.518 2.827 1.518 2.827h3.505l-2.667-4.13c.207-.256.37-.544.489-.85.565-1.471-.237-2.893-1.792-3.175z"/>
    </symbol>
    <symbol id="reply-symbol" viewBox="0 0 16 16">
        <path d="M12.11 13.1c1.508-3.84-.5-3.922-4.11-3.2v3l-6-5 6-5v3c2.166 0 3.657-.39 5.192 1.324 1.534 1.715.722 3.349-1.083 5.876z"/>
    </symbol>
    <symbol id="replyall-symbol" viewBox="0 0 4.2333332 4.2333332">
        <path d="M1.72.769L.134 2.092l1.588 1.323v-.438L.662 2.092l1.059-.885zm.795 0L.927 2.092l1.588 1.323V2.62c.955-.191 1.482-.173 1.083.843.477-.668.695-1.1.29-1.554-.407-.454-.8-.347-1.373-.347z"/>
    </symbol>
    <symbol id="rightalign-symbol" viewBox="0 0 16 16">
        <path d="M4 1v2h11V1H4zM1 4v2h14V4H1zm5 3v2h9V7H6zm5 3v2H8v1h3v2l4-2.5-4-2.5z"/>
    </symbol>
    <symbol id="schedule-symbol" viewBox="0 0 16 16">
        <path d="M12 1v1.997h-2v1.996h2V6.99h2V4.993h2V2.997h-2V1h-2z"/>
        <path d="M6.406 6A.5.5 0 0 0 6 6.5V9H4.5a.5.5 0 1 0 0 1h2a.5.5 0 0 0 .5-.5v-3a.5.5 0 0 0-.594-.5z"/>
        <path d="M6.5 3C2.922 3 0 5.922 0 9.5S2.922 16 6.5 16 13 13.078 13 9.5c0-.516-.073-1.018-.187-1.5h-2.094c.167.473.281.967.281 1.5 0 2.497-2.003 4.5-4.5 4.5A4.485 4.485 0 0 1 2 9.5C2 7.003 4.003 5 6.5 5c.932 0 1.79.27 2.5.75V3.5A6.442 6.442 0 0 0 6.5 3z"/>
    </symbol>
    <symbol id="starred-symbol" viewBox="0 0 16 16">
        <path d="M8 .392L5.881 5.887l-5.88.317 4.57 3.713-1.515 5.691L8 12.408l4.944 3.2-1.516-5.69L16 6.203l-5.881-.317z"/>
    </symbol>
    <symbol id="status-symbol" viewBox="0 0 16 16">
        <path d="M8 5.018A2.984 2.984 0 0 0 5.018 8 2.984 2.984 0 0 0 8 10.982 2.984 2.984 0 0 0 10.982 8 2.984 2.984 0 0 0 8 5.018z"/>
        <path d="M7.969 1.063c-3.858 0-7 3.142-7 7 0 3.857 3.142 7 7 7 3.857 0 7-3.143 7-7 0-3.858-3.143-7-7-7zm0 1c3.32 0 6.03 2.678 6.03 6 0 3.32-2.71 6-6.03 6a5.99 5.99 0 0 1-6-6c0-3.322 2.678-6 6-6z"/>
    </symbol>
    <symbol id="sync-symbol" viewBox="0 0 16 16">
        <path d="M14.902 2a1.047 1.047 0 0 0-.125.032c-.447.1-.793.542-.781 1v1.687C14 6.032 14 6.032 12.433 6.032h-1.437c-.524 0-1 .476-1 1a1 1 0 0 0 0 .218v.782h6v-5a.979.979 0 0 0 0-.188v-.812h-.813A1.002 1.002 0 0 0 14.902 2zM.005 8v5a.979.979 0 0 0 0 .188V14h.812c.092.024.187.034.281.031.043-.008.084-.018.125-.031.447-.1.793-.542.782-1v-1.688C2 10 2 10 3.567 10h1.438c.523 0 1-.476 1-1a1 1 0 0 0 0-.219V8z"/>
        <path d="M8 1C4.847 1 2.18 3.126 1.312 6h2.094A5.013 5.013 0 0 1 8 3a5.013 5.013 0 0 1 4.594 3h2.094C13.819 3.126 11.152 1 8 1zm-6.688 9c.869 2.874 3.535 5 6.688 5 3.153 0 5.82-2.126 6.688-5h-2.094A5.013 5.013 0 0 1 8 13a5.013 5.013 0 0 1-4.594-3H1.312z" color="#000"/>
    </symbol>
    <symbol id="tag-symbol" viewBox="0 0 16 16">
        <path d="M1.688 1.004A.869.869 0 0 0 1 1.848v4.41a.85.85 0 0 0 .25.595l7.916 7.914c.312.31.878.31 1.19 0l4.41-4.41c.312-.312.312-.878 0-1.19L6.852 1.255a.851.851 0 0 0-.595-.25H1.845a.842.842 0 0 0-.157 0zm2.816 2.002a1.502 1.502 0 1 1 0 3.003 1.502 1.502 0 0 1 0-3.003z"/>
    </symbol>
    <symbol id="time-symbol" viewBox="0 0 16 16">
        <path d="M7.5.013A7.492 7.492 0 0 0 .014 7.5 7.492 7.492 0 0 0 7.5 14.987 7.492 7.492 0 0 0 14.987 7.5 7.492 7.492 0 0 0 7.5.013zm0 1.974A5.508 5.508 0 0 1 13.014 7.5 5.508 5.508 0 0 1 7.5 13.013 5.508 5.508 0 0 1 1.987 7.5 5.508 5.508 0 0 1 7.5 1.987z"/>
        <path d="M4.313 3.969a.5.5 0 0 0-.22.844l3.095 3.062a.5.5 0 0 0 .062.031.5.5 0 0 0 .063.031.5.5 0 0 0 .062.032.5.5 0 0 0 .031 0 .5.5 0 0 0 .063.03.5.5 0 0 0 .093 0H10.5a.5.5 0 1 0 0-1H7.75L4.782 4.126a.5.5 0 0 0-.469-.156z"/>
    </symbol>
    <symbol id="trash-symbol" viewBox="0 0 16 16">
        <path d="M5 0v1H2c-.554 0-1 .446-1 1v1h14V2c0-.554-.446-1-1-1h-3V0zM2 4v10c0 .554.446 1 1 1h10c.554 0 1-.446 1-1V4H3z"/>
    </symbol>
    <symbol id="underline-symbol" viewBox="0 0 16 16">
        <path d="M7.906 3c-.51 0-1.024.043-1.562.156a10.12 10.12 0 0 0-1.657.5v1.438a6.09 6.09 0 0 1 1.47-.563 6.51 6.51 0 0 1 1.593-.218c.856 0 1.53.196 2 .593.476.391.719.968.719 1.688v.156H8.25c-1.423 0-2.468.268-3.188.813-.714.544-1.093 1.334-1.093 2.406 0 .918.302 1.669.875 2.219.578.544 1.337.812 2.312.812.771 0 1.436-.134 1.969-.406.533-.278.987-.703 1.344-1.281V13h1.562V7.312c0-1.45-.35-2.535-1.031-3.25C10.32 3.349 9.284 3 7.906 3zm1 4.969h1.563v.343c0 1.02-.286 1.851-.813 2.47-.521.611-1.195.906-2.062.905-.63 0-1.132-.145-1.5-.468-.363-.329-.563-.788-.563-1.344 0-.697.263-1.18.75-1.469.488-.289 1.361-.437 2.625-.437zM4 14v1h8v-1H4z"/>
    </symbol>
    <symbol id="unindent-symbol" viewBox="0 0 16 16">
        <path d="M6 1v2h9V1H6zM1 5v2h9V5H1zm14 0l-4 3 4 3V5zM1 9v2h7V9H1zm5 4v2h9v-2H6z"/>
    </symbol>
    <symbol id="unjunk-symbol" viewBox="0 0 4.2333332 4.2333332">
        <path d="M2.423.191l-.084.06C1.507.836 1 1.497.866 2.142c-.068.322-.041.641.084.938l-.475.476.204.204L3.76.68 3.554.474l-.824.824A3.181 3.181 0 0 1 2.441.3zm-.379 1.505c.025.074.052.144.079.21l-.65.65c.08-.361.231-.556.571-.86zm.993.09l-.644.644c.016.022.034.045.048.066.1.14.179.235.229.319a.57.57 0 0 1 .084.27c.015.16-.059.352-.144.5a1.607 1.607 0 0 1-.175.246l-.132.157.199-.048a.757.757 0 0 0 .216-.115c.095-.064.207-.156.313-.27.213-.23.406-.564.367-.975-.034-.354-.188-.56-.361-.794zM1.533 3.29l-.27.27c.1.116.217.228.354.331l.199.15-.096-.228s-.088-.195-.163-.445l-.024-.078z"/>
    </symbol>
    <symbol id="unstarred-symbol" viewBox="0 0 16 16">
        <path d="M8 1.469L5.844 5.844l-4.813.718L4.5 9.97l-.813 4.812L8 12.5l4.313 2.281L11.5 9.97 15 6.563l-4.844-.72L8 1.47zm.031 2.093L9.312 6.25a.933.933 0 0 0 .72.5L13 7.188 10.844 9.28a.933.933 0 0 0-.281.813l.53 2.969-2.655-1.407a.933.933 0 0 0-.876 0l-2.656 1.406.5-2.968a.933.933 0 0 0-.25-.813L3 7.22l3-.438a.933.933 0 0 0 .688-.5L8.03 3.563z"/>
    </symbol>
    <symbol id="search-symbol" viewBox="0 0 16 16">
        <path d="M6.507.996C3.48.996.997 3.475.997 6.5c0 3.025 2.482 5.504 5.51 5.504 3.03 0 5.511-2.479 5.511-5.504 0-3.025-2.482-5.504-5.51-5.504zm0 2.008c1.948 0 3.5 1.55 3.5 3.496a3.479 3.479 0 0 1-3.5 3.496c-1.947 0-3.5-1.55-3.5-3.496a3.479 3.479 0 0 1 3.5-3.496z"/>
        <path d="M9.812 9a1 1 0 0 0-.5 1.719l4 4a1.005 1.005 0 1 0 1.406-1.438l-4-4A1 1 0 0 0 9.812 9z"/>
    </symbol>
    <symbol id="left-symbol" viewBox="0 0 16 16">
        <use href="#down-symbol" transform="rotate(90 8 8)"/>
    </symbol>
    <symbol id="right-symbol" viewBox="0 0 16 16">
        <use href="#down-symbol" transform="rotate(-90 8 8)"/>
    </symbol>

</svg>
