<?xml version="1.0" encoding="UTF-8" standalone="no"?>
<!--
   ~  Copyright 2017 Nicola Fiori (JD342)
   ~
   ~  This file contains work originating from the Adwaita Icon Theme
   ~  created by the GNOME Project and is part of the
   ~  Arc Integration for Thunderbird, licensed under the terms of the
   ~  GNU General Public License 3.0.
   ~
   -->

<svg xmlns="http://www.w3.org/2000/svg" viewBox="0 0 16 16">
    <g transform="translate(-60 -668)">
        <path d="M64.031 673.031V680h5l1.991-1.987-.022-4.982h-6.969z"/>
        <rect x="65" y="668" rx=".53" ry=".53" height="4" width="5.063"/>
        <path d="M62.5 669c-.293 0-.647.036-1 .313-.353.276-.531.768-.531 1.125v12.03c0 .385.127.816.437 1.126.286.285.71.386 1.094.375V684h9.969c.363 0 .76-.128 1.062-.406.303-.279.469-.711.469-1.125v-12.094c0-.333-.119-.73-.406-1a1.444 1.444 0 0 0-.969-.375h-1.656v2H72v11h-9.031v-11h.968v-2H62.5z"/>
    </g>
</svg>
