<?xml version="1.0" encoding="UTF-8" standalone="no"?>
<!--
   ~  Copyright (c) 2017 Nicola Fiori (JD342)
   ~
   ~  This file is part of the Arc Integration for Thunderbird, licensed under
   ~  the terms of the GNU General Public License 3.0.
   ~
   -->
<svg xmlns="http://www.w3.org/2000/svg" viewBox="0 0 24 24" width="24" height="24">
    <path d="M3.881 5h1.303a.34.34 0 0 1 .349.334v1.333A.34.34 0 0 1 5.184 7H3.881a.34.34 0 0 1-.348-.333V5.334A.34.34 0 0 1 3.88 5zm3.911 0c-.16.011-.295.13-.293.256v1.489c-.002.134.153.257.323.255H19.21c.17 0 .324-.121.323-.255V5.256c.002-.134-.154-.257-.323-.255H7.792z" fill="#a2aab9" stroke="#8a92a2" stroke-linecap="square"/>
    <path d="M4.855 9h1.303a.34.34 0 0 1 .349.334v1.333a.34.34 0 0 1-.349.333H4.855a.34.34 0 0 1-.348-.333V9.334A.34.34 0 0 1 4.855 9zm3.912 0c-.16.011-.296.13-.294.256v1.488c0 .135.153.257.323.256h11.388c.17 0 .325-.121.323-.256V9.256c0-.134-.154-.257-.323-.256H8.767z" fill="#abd56b" stroke="#93bd52" stroke-linecap="square"/>
    <path d="M4.855 13h1.303a.34.34 0 0 1 .349.334v1.333a.34.34 0 0 1-.349.333H4.855a.34.34 0 0 1-.348-.333v-1.333A.34.34 0 0 1 4.855 13zm3.912 0c-.16.011-.296.13-.294.256v1.488c0 .135.153.257.323.256h11.388c.17 0 .325-.121.323-.256v-1.488c0-.134-.154-.257-.323-.256H8.767z" fill="#efb458" stroke="#d9a047" stroke-linecap="square"/>
    <path d="M3.855 17h1.303a.34.34 0 0 1 .349.334v1.333a.34.34 0 0 1-.349.333H3.855a.34.34 0 0 1-.348-.333v-1.333A.34.34 0 0 1 3.855 17zm3.912 0c-.16.011-.296.13-.294.256v1.488c0 .135.153.257.323.256h11.388c.17 0 .325-.121.323-.256v-1.488c0-.134-.154-.257-.323-.256H7.767z" fill="#a2aab9" stroke="#8a92a2" stroke-linecap="square"/>
</svg>
