<?xml version="1.0" encoding="UTF-8" standalone="no"?>
<!--
   ~  Copyright (c) 2017-2019 Nicola Fiori
   ~
   ~  This file is part of the Arc Integration for Thunderbird, licensed under
   ~  the terms of the GNU General Public License 3.0.
   ~
   -->
<svg xmlns="http://www.w3.org/2000/svg" viewBox="0 0 24 24" width="24" height="24">
    <path d="M30.128 5.5c-4.108 0-7.438 3.134-7.438 7 .033 1.43.154 3.13.992 6.998.225.681 1.276 1.88 2.342 3.03.184 1.294.23 2.517-.018 3.97-2.886 2.414-10.268 3.5-10.257 5.999l-.992 7.499c0 2.485 6.882 4.5 15.371 4.5 8.49 0 15.371-2.015 15.371-4.5l-.991-7.5c-.012-2.139-7.438-3.499-10.29-5.998-.15-1.254-.12-2.485.016-3.72 1.03-1.224 2.099-2.549 2.34-3.28.944-4.02.941-5.499.992-6.999 0-3.865-3.33-6.999-7.438-6.999z" fill="none" stroke="#5d6b8a" stroke-width="1.95" stroke-opacity=".267" transform="matrix(.48939 0 0 .5373 -2.744 -1.431)"/>
    <path d="M12 2c-1.815 0-3.265 1.538-3.267 3.419.015.738.072 1.61.458 3.609.033.108.168.35.36.616.192.269.438.575.688.876l.05.06.01.082a7.55 7.55 0 0 1-.01 2.172l-.014.096-.066.062c-.742.693-1.959 1.141-2.988 1.603-.515.232-.981.464-1.3.702-.318.237-.457.45-.456.65v.017L5 19.898c.001.204.134.445.466.702.333.258.844.507 1.483.716C8.228 21.735 10.02 22 12 22s3.772-.265 5.05-.684c.64-.209 1.15-.458 1.484-.716.332-.257.465-.498.466-.702l-.465-3.932v-.018c0-.064-.023-.135-.098-.234a1.674 1.674 0 0 0-.362-.327c-.325-.229-.798-.463-1.316-.704-1.037-.482-2.256-.979-2.987-1.695l-.067-.066-.011-.1a9.79 9.79 0 0 1 .007-2.02l.008-.08.046-.062c.241-.32.485-.652.68-.946.194-.293.336-.56.375-.688.434-2.078.434-2.817.458-3.607-.002-1.882-1.453-3.42-3.268-3.42z" fill="#f8f8f8"/>
    <path d="M18.5 13a.5.5 0 0 0-.5.5V17h-3.5a.5.5 0 0 0-.5.5v1a.5.5 0 0 0 .5.5H18v3.5a.5.5 0 0 0 .5.5h1a.5.5 0 0 0 .5-.5V19h3.5a.5.5 0 0 0 .5-.5v-1a.5.5 0 0 0-.5-.5H20v-3.5a.5.5 0 0 0-.5-.5z" fill="#5294e2"/>
</svg>
