<?xml version="1.0" encoding="UTF-8" standalone="no"?>
<!--
   ~  Copyright (c) 2017 Nicola Fiori (JD342)
   ~
   ~  This file is part of the Arc Integration for Thunderbird, licensed under
   ~  the terms of the GNU General Public License 3.0.
   ~
   -->
<svg xmlns="http://www.w3.org/2000/svg" viewBox="0 0 24 24" width="24" height="24">
    <path fill="none" d="M0 0h24v24H0z"/>
    <path d="M2.5 3C1.669 3 1 3.669 1 4.5v14c0 .831.67 1.555 1.5 1.5h3L7 22h10l1.5-2h3c.831 0 1.5-.669 1.5-1.5v-14c0-.831-.669-1.5-1.5-1.5H4z" fill="#f2f2f2"/>
    <path d="M4 6v11h3l1.5 2h7l1.5-2h3V6z" fill="#4c5263"/>
    <path d="M2.5 2A2.517 2.517 0 0 0 0 4.5v14c0 1.37 1.123 2.594 2.566 2.498H2.5 5l1.2 1.6A1 1 0 0 0 7 23h10a1 1 0 0 0 .8-.4L19 21h2.5c1.368 0 2.5-1.132 2.5-2.5v-14C24 3.132 22.868 2 21.5 2H4zm0 1h19c.831 0 1.5.669 1.5 1.5v14c0 .831-.669 1.5-1.5 1.5h-3L17 22H7l-1.5-2h-3c-.83.055-1.5-.669-1.5-1.5v-14C1 3.669 1.669 3 2.5 3z" fill="#4f6698" fill-opacity=".267"/>
    <path fill="none" d="M0 0h24v24H0z"/>
    <path d="M24 18a6 6 0 0 1-6 6 6 6 0 0 1-6-6 6 6 0 0 1 6-6 6 6 0 0 1 6 6z" fill="#a4aab9"/>
    <path d="M15.001 15h.774a.78.78 0 0 1 .515.234l1.711 1.711 1.735-1.71c.199-.173.335-.23.515-.235h.75v.75c0 .215-.026.413-.187.563l-1.711 1.71 1.687 1.688c.141.141.211.34.211.54V21h-.75a.761.761 0 0 1-.539-.212l-1.71-1.71-1.712 1.71a.76.76 0 0 1-.539.211h-.75v-.75c0-.199.07-.398.211-.539l1.711-1.687-1.71-1.711A.681.681 0 0 1 15 15.75z" fill="#fff"/>
</svg>
