<?xml version="1.0" encoding="UTF-8" standalone="no"?>
<!--
   ~  Copyright (c) 2017-2019 Nicola Fiori
   ~
   ~  This file is part of the Arc Integration for Thunderbird, licensed under
   ~  the terms of the GNU General Public License 3.0.
   ~
   -->
<svg xmlns="http://www.w3.org/2000/svg" viewBox="0 0 24 24" width="24" height="24">
    <path d="M9.997 4a5.997 5.997 0 1 0 0 11.994 5.986 5.986 0 0 0 3.463-1.107l4.819 4.82a1.015 1.015 0 0 0 1.427 0 1.015 1.015 0 0 0 0-1.429l-4.819-4.819a5.986 5.986 0 0 0 1.107-3.462A5.997 5.997 0 0 0 9.997 4zm0 1.57a4.426 4.426 0 1 1 0 8.853 4.426 4.426 0 0 1 0-8.853z" fill="#7d859b"/>
</svg>
