<?xml version="1.0" encoding="UTF-8" standalone="no"?>
<!--
   ~  Copyright (c) 2017 Nicola Fiori (JD342)
   ~
   ~  This file is part of the Arc Integration for Thunderbird, licensed under
   ~  the terms of the GNU General Public License 3.0.
   ~
   -->
<svg xmlns="http://www.w3.org/2000/svg" viewBox="0 0 24 24" width="24" height="24">
    <path d="M10.55 1.744a.509.509 0 0 0-.504.52v1.48a.244.244 0 0 1-.18.235 8.308 8.308 0 0 0-2.032.845.244.244 0 0 1-.295-.038L6.486 3.733a.476.476 0 0 0-.348-.157.5.5 0 0 0-.36.142l-2.06 2.06c-.2.199-.195.498.015.708l1.053 1.053a.244.244 0 0 1 .038.296 8.307 8.307 0 0 0-.845 2.03.244.244 0 0 1-.236.182h-1.48a.509.509 0 0 0-.519.503v2.9a.51.51 0 0 0 .519.504h1.48a.244.244 0 0 1 .236.18c.191.718.48 1.404.845 2.031a.244.244 0 0 1-.038.296l-1.053 1.053c-.21.21-.214.51-.015.708l2.06 2.06c.199.2.498.194.708-.015l1.053-1.053a.244.244 0 0 1 .295-.038 8.308 8.308 0 0 0 2.031.845.244.244 0 0 1 .181.235v1.48c0 .292.226.52.504.52h2.9a.509.509 0 0 0 .503-.52v-1.48a.244.244 0 0 1 .182-.235 8.308 8.308 0 0 0 2.03-.845.244.244 0 0 1 .296.038l1.053 1.053c.21.21.51.214.708.015l2.06-2.06c.2-.199.194-.498-.015-.708l-1.053-1.053a.244.244 0 0 1-.038-.296 8.308 8.308 0 0 0 .845-2.03.244.244 0 0 1 .236-.181h1.48a.51.51 0 0 0 .519-.504v-2.9a.509.509 0 0 0-.519-.503h-1.48a.244.244 0 0 1-.236-.182 8.308 8.308 0 0 0-.845-2.03.244.244 0 0 1 .038-.296l1.053-1.053c.21-.21.214-.509.015-.708l-2.06-2.06c-.199-.199-.498-.194-.708.015l-1.053 1.053a.244.244 0 0 1-.296.038 8.308 8.308 0 0 0-2.03-.845.244.244 0 0 1-.182-.235v-1.48a.509.509 0 0 0-.503-.52zM12 8.581A3.423 3.423 0 0 1 15.419 12 3.423 3.423 0 0 1 12 15.419 3.423 3.423 0 0 1 8.581 12 3.423 3.423 0 0 1 12 8.581z" fill="#eff0f1"/>
    <path d="M10.55 1.5a.756.756 0 0 0-.748.763v1.48a8.551 8.551 0 0 0-2.09.87L6.657 3.56a.733.733 0 0 0-1.053-.015l-2.06 2.06A.738.738 0 0 0 3.56 6.66l1.053 1.053a8.55 8.55 0 0 0-.87 2.09h-1.48a.756.756 0 0 0-.763.748v2.9c0 .413.343.748.763.748h1.48a8.55 8.55 0 0 0 .87 2.09L3.56 17.343a.738.738 0 0 0-.015 1.053l2.06 2.06a.738.738 0 0 0 1.053-.015l1.053-1.053a8.551 8.551 0 0 0 2.091.87v1.48c0 .42.335.763.748.763h2.9a.756.756 0 0 0 .748-.763v-1.48a8.551 8.551 0 0 0 2.09-.87l1.054 1.053a.738.738 0 0 0 1.053.015l2.06-2.06a.738.738 0 0 0-.015-1.053l-1.053-1.053a8.55 8.55 0 0 0 .87-2.091h1.48c.42 0 .763-.335.763-.748v-2.9a.756.756 0 0 0-.763-.748h-1.48a8.55 8.55 0 0 0-.87-2.09L20.44 6.66a.738.738 0 0 0 .015-1.054l-2.06-2.06a.738.738 0 0 0-1.053.015l-1.053 1.053a8.551 8.551 0 0 0-2.091-.87v-1.48a.756.756 0 0 0-.748-.763zM12 8.826a3.176 3.176 0 0 1 0 6.348 3.176 3.176 0 0 1 0-6.348z" fill="none" stroke="#2b3853" stroke-linejoin="round" stroke-opacity=".275"/>
    <path d="M12 6.5A5.506 5.506 0 0 0 6.5 12c0 3.033 2.467 5.5 5.5 5.5s5.5-2.467 5.5-5.5-2.467-5.5-5.5-5.5z" fill="none" stroke="#344365" stroke-opacity=".169"/>
    <path d="M12 7c-2.757 0-5 2.243-5 5s2.243 5 5 5 5-2.243 5-5-2.243-5-5-5zm0 2.308a2.693 2.693 0 0 1 0 5.384 2.693 2.693 0 0 1 0-5.384z" fill-opacity=".035"/>
</svg>
